<svg xmlns="http://www.w3.org/2000/svg" viewBox="0 0 722.87 151.98"><defs><style>.cls-1{fill:none;}.cls-2{fill:#7d974e;}</style></defs><g id="Camada_2" data-name="Camada 2"><g id="Camada_2-2" data-name="Camada 2"><path class="cls-1" d="M711.8,90a4.57,4.57,0,0,1-4.34,2.37c-3.56,0-5.76-2.87-5.76-7.51s2.15-7.44,5.77-7.44a4.39,4.39,0,0,1,4.08,2.21,6,6,0,0,1,.63,1.58l3.88-.85a7,7,0,0,0-1.38-2.93,8.59,8.59,0,0,0-7.14-3.3,8.88,8.88,0,0,0-7.11,2.95,11.86,11.86,0,0,0-2.61,7.87,11.64,11.64,0,0,0,2.85,8.17,9.1,9.1,0,0,0,6.78,2.54c3.72,0,6.39-1.34,7.84-4a11,11,0,0,0,1.06-2.87l-4-.69A5.35,5.35,0,0,1,711.8,90Z"/><path class="cls-1" d="M400.39,68.14a12.57,12.57,0,0,0-2-6.46q-2-3.34-5.31-3.35a6.42,6.42,0,0,0-5.69,3.43,16.55,16.55,0,0,0-2.12,8.75,30.42,30.42,0,0,0,.91,7.88L398,72.45A4.38,4.38,0,0,0,400.39,68.14Z"/><path class="cls-2" d="M707.12,69.18a15.77,15.77,0,0,0,0,31.54,16,16,0,0,0,11.17-4.6,15.78,15.78,0,0,0-11.13-26.94Zm8.17,22.5c-1.45,2.63-4.12,4-7.84,4a9.1,9.1,0,0,1-6.78-2.54,11.64,11.64,0,0,1-2.85-8.17,11.86,11.86,0,0,1,2.61-7.87,8.88,8.88,0,0,1,7.11-2.95,8.59,8.59,0,0,1,7.14,3.3,7,7,0,0,1,1.38,2.93l-3.88.85a6,6,0,0,0-.63-1.58,4.39,4.39,0,0,0-4.08-2.21c-3.62,0-5.76,2.76-5.77,7.44s2.2,7.5,5.76,7.51A4.57,4.57,0,0,0,711.8,90a5.35,5.35,0,0,0,.53-1.87l4,.69A11,11,0,0,1,715.29,91.68Z"/><path class="cls-2" d="M228,66.49a36.69,36.69,0,0,0-7.19-3.26c-2.62-.89-5.25-1.69-7.87-2.4a54.13,54.13,0,0,1-7.2-2.43,13.13,13.13,0,0,1-5.31-4,10.46,10.46,0,0,1-2-6.6A9.19,9.19,0,0,1,201,41c1.78-1.77,4.34-2.65,7.7-2.65a10.83,10.83,0,0,1,6.19,1.7,11.61,11.61,0,0,1,3.8,4.09c.85,1.59,1.66,3.17,2.42,4.76A13.91,13.91,0,0,0,224,53a6.36,6.36,0,0,0,4.53,1.7q5.87,0,5.87-5.68.1-6-7.18-11T209,33.11q-11.17,0-17.73,5.29a16.85,16.85,0,0,0-6.57,13.74,19.27,19.27,0,0,0,2,9.31,14.73,14.73,0,0,0,5.36,5.78,35.57,35.57,0,0,0,7.23,3.26c2.63.86,5.25,1.61,7.88,2.25a51.52,51.52,0,0,1,7.19,2.3,13,13,0,0,1,5.31,3.9,10,10,0,0,1,2.06,6.51,8.49,8.49,0,0,1-2.9,6.73,11.36,11.36,0,0,1-7.74,2.52A14.54,14.54,0,0,1,203.79,93a13.06,13.06,0,0,1-4.58-4.18c-1-1.62-2-3.25-2.88-4.91a17.23,17.23,0,0,0-3.11-4.21A6.2,6.2,0,0,0,189,77.81a5.3,5.3,0,0,0-4.13,1.51,5.78,5.78,0,0,0-1.38,4.07q0,6.15,7.46,11.33t19.65,5.2q10.45,0,17.6-5a15.89,15.89,0,0,0,7.17-13.65,18.6,18.6,0,0,0-2.06-9.08A14.47,14.47,0,0,0,228,66.49Z"/><path class="cls-2" d="M288.88,95.42a4.1,4.1,0,0,0-1.52-.6c-.55-.09-1.05-.55-1.51-1.37a8,8,0,0,1-.68-3.71l0-33.55q0-2-3.48-1.65L270,56.27q-1.83.27-1.83,1.92v.28q0,.73,1.83,2.7a6.19,6.19,0,0,1,1.83,4.27l0,18.6a12.54,12.54,0,0,1-2.26,7.74,6.8,6.8,0,0,1-5.64,3q-7.61,0-7.59-12.47l.3-26.12c0-1.4-1.25-1.95-3.75-1.65l-11.55,1.73c-1.28.18-1.93.82-1.93,1.92v.27c0,.49.6,1.4,1.79,2.71A6.26,6.26,0,0,1,243,65.4l0,15.49q0,9.08,4.8,14.07A16.21,16.21,0,0,0,260,100q9.44,0,13.29-6.31c.12,2.2.84,3.75,2.15,4.63s3.31,1.34,6,1.34q8.16,0,8.16-2.65A1.76,1.76,0,0,0,288.88,95.42Z"/><path class="cls-2" d="M327.89,76.86a25,25,0,0,0-4.9-2.34q-2.7-1-5.36-1.75a46.93,46.93,0,0,1-4.85-1.7,8.76,8.76,0,0,1-3.58-2.66,6.78,6.78,0,0,1-1.37-4.31,6.23,6.23,0,0,1,1.66-4.35A5.55,5.55,0,0,1,313.8,58a5.46,5.46,0,0,1,4.3,1.88A10.64,10.64,0,0,1,320.39,64a11.26,11.26,0,0,0,2.19,4.12A5.11,5.11,0,0,0,326.71,70a5.35,5.35,0,0,0,3.71-1.37,4.45,4.45,0,0,0,1.52-3.39q0-4.5-5.27-7.75t-13.6-3.27q-8.25,0-13.43,3.79a11.52,11.52,0,0,0-5.19,9.66,12,12,0,0,0,2.6,8A14,14,0,0,0,303.42,80c2.5.82,5,1.56,7.51,2.2a18.33,18.33,0,0,1,6.37,2.9,6.13,6.13,0,0,1,2.6,5.22A5.5,5.5,0,0,1,318,94.81a7.24,7.24,0,0,1-4.81,1.55,6.61,6.61,0,0,1-4.9-1.88,9.81,9.81,0,0,1-2.57-4.17,10.93,10.93,0,0,0-2.33-4.17,5.43,5.43,0,0,0-4.3-1.89,6,6,0,0,0-4,1.28,4.66,4.66,0,0,0-1.52,3.76q0,4.39,5.49,7.52t14.11,3.13q9,0,14.3-3.7t5.33-9.39a12.63,12.63,0,0,0-1.37-6.09A10.23,10.23,0,0,0,327.89,76.86Z"/><path class="cls-2" d="M368.62,85.2a2,2,0,0,0-2.07,1q-1.47,4.13-6.23,4.12A4.2,4.2,0,0,1,357,88.67a6.5,6.5,0,0,1-1.32-4.26l0-23.92h10.53a1.88,1.88,0,0,0,1.29-.5,1.75,1.75,0,0,0,.55-1.33V57.11a1.87,1.87,0,0,0-.55-1.38,1.76,1.76,0,0,0-1.28-.55H355.68l-.08-9.07c0-1.47-.67-2.2-2-2.2h-1.84c-1.1,0-1.8.74-2.11,2.2a11.61,11.61,0,0,1-3.35,6.6,8.91,8.91,0,0,1-6.37,2.46h-2.29c-1.23,0-1.84.64-1.84,1.92v1.56a1.62,1.62,0,0,0,1.83,1.84h4.31l0,23.74q0,7.7,3.7,11.78t10.12,4.09q6.51,0,10.32-4a13.19,13.19,0,0,0,3.81-9.35A1.38,1.38,0,0,0,368.62,85.2Z"/><path class="cls-2" d="M412.19,84.56a1.72,1.72,0,0,0-2,.73,10.56,10.56,0,0,1-4.18,3.8,13,13,0,0,1-6.28,1.5q-8.34,0-12.09-8L408,73.37a6.23,6.23,0,0,0,4-6q0-5.13-4.48-9.08t-12.83-4a22,22,0,0,0-22.2,22.52q0,10.44,6.21,16.87t15.94,6.43q8.07,0,13.11-4.52t5.51-9.3A1.5,1.5,0,0,0,412.19,84.56Zm-26.93-14a16.55,16.55,0,0,1,2.12-8.75,6.42,6.42,0,0,1,5.69-3.43q3.3,0,5.31,3.35a12.57,12.57,0,0,1,2,6.46A4.38,4.38,0,0,1,398,72.45l-11.83,5.94A30.42,30.42,0,0,1,385.26,70.51Z"/><path class="cls-2" d="M494,90.42l-1.09-16.31q-.72-10.45-5.39-15.08a15.85,15.85,0,0,0-11.63-4.64,16,16,0,0,0-8.39,2.19,13.67,13.67,0,0,0-5.55,6q-4.75-8.25-15.2-8.27-8.34,0-12.66,6.59V56.63a2.37,2.37,0,0,0-.83-2.06c-.55-.4-1.34-.35-2.38.13L419.37,60c-1.29.61-1.93,1.25-1.93,1.92v.37a2.35,2.35,0,0,0,1.14,1.78,17.18,17.18,0,0,1,2.25,2.07,4.11,4.11,0,0,1,1.09,2.93l0,21.35a5.75,5.75,0,0,1-2,4.13c-1.32,1.28-2,2.23-2,2.84v.36c0,1,.7,1.56,2.11,1.56l17,0c1.41,0,2.11-.51,2.11-1.55v-.37c0-.61-.65-1.56-2-2.84a5.72,5.72,0,0,1-2-4.13l0-20.71a12,12,0,0,1,2.12-7.33,6.82,6.82,0,0,1,5.78-2.84A6.67,6.67,0,0,1,449,63q2.19,3.39,2.18,9.63V90.47a6.29,6.29,0,0,1-1.66,4.12c-1.1,1.28-1.65,2.23-1.65,2.84v.36c0,1,.7,1.56,2.1,1.57h15.86c1.34,0,2-.51,2-1.55v-.37c0-.61-.54-1.56-1.6-2.84a6.34,6.34,0,0,1-1.6-4.13l0-17a22.31,22.31,0,0,0-.37-4.4,12,12,0,0,1,2.21-6.87,6.53,6.53,0,0,1,10.91.61q1.92,3.26,2.27,10.86l.9,16.77A5.4,5.4,0,0,1,479,94.62c-1.14,1.28-1.7,2.23-1.7,2.84v.37q0,1.56,2.1,1.56H495.3c1.34,0,2-.51,2-1.55v-.37a5.64,5.64,0,0,0-1.56-2.93A7.37,7.37,0,0,1,494,90.42Z"/><path class="cls-2" d="M575.42,75.34a2.41,2.41,0,0,0-2.84,1q-6.52,11.55-17.34,11.53-8.7,0-15.25-8.54t-6.52-21.63q0-8.34,4.14-13.51t9.9-5.17a11.07,11.07,0,0,1,6.32,1.84,15.19,15.19,0,0,1,4.44,4.49c1.13,1.78,2.21,3.53,3.25,5.28a17.8,17.8,0,0,0,3.66,4.44A7.13,7.13,0,0,0,570,57a6.5,6.5,0,0,0,4.77-1.69,6,6,0,0,0,1.75-4.44q0-6.6-7.78-12a31.55,31.55,0,0,0-18.32-5.38q-13.47,0-22,9.14T520,66a35,35,0,0,0,9.18,23.89q9.2,10.41,21.94,10.42,11.64,0,18.33-6.49A24.44,24.44,0,0,0,577,77.87,2.11,2.11,0,0,0,575.42,75.34Z"/><path class="cls-2" d="M586,46.67a9.44,9.44,0,0,0,6.55,2.25,9.13,9.13,0,0,0,6.46-2.23,7.57,7.57,0,0,0,2.43-5.82,7.42,7.42,0,0,0-2.42-5.73,9.13,9.13,0,0,0-6.46-2.25,9.45,9.45,0,0,0-6.55,2.23,7.35,7.35,0,0,0-2.53,5.73A7.44,7.44,0,0,0,586,46.67Z"/><path class="cls-2" d="M599.32,90.54l0-33.82a2.11,2.11,0,0,0-1-2,3.06,3.06,0,0,0-2.75.13l-11.46,5.67c-1.28.67-1.92,1.32-1.93,1.93v.27c0,.49.58,1.41,1.74,2.75a6.5,6.5,0,0,1,1.74,4.31l0,20.71a6.05,6.05,0,0,1-1.75,4.12c-1.16,1.29-1.74,2.23-1.74,2.84v.37c0,1,.67,1.56,2,1.56l16.86,0c1.41,0,2.11-.52,2.11-1.56v-.36q0-.92-1.92-2.85A5.78,5.78,0,0,1,599.32,90.54Z"/><path class="cls-2" d="M639.24,85.49a2,2,0,0,0-2.06,1c-1,2.75-3.07,4.13-6.24,4.12A4.14,4.14,0,0,1,627.6,89a6.43,6.43,0,0,1-1.33-4.26l0-23.92h10.54a1.83,1.83,0,0,0,1.28-.5,1.7,1.7,0,0,0,.55-1.33V57.4a1.86,1.86,0,0,0-.55-1.37,1.73,1.73,0,0,0-1.28-.55H626.3l-.08-9.08c0-1.46-.67-2.2-2-2.2h-1.84c-1.1,0-1.8.73-2.11,2.2A11.52,11.52,0,0,1,616.91,53a8.92,8.92,0,0,1-6.37,2.47h-2.29c-1.22,0-1.83.64-1.84,1.92v1.56a1.62,1.62,0,0,0,1.83,1.83h4.31l0,23.73q0,7.69,3.7,11.78t10.13,4.09q6.49,0,10.31-4A13.17,13.17,0,0,0,640.47,87,1.38,1.38,0,0,0,639.24,85.49Z"/><path class="cls-2" d="M689.35,55.54l-11.18,0q-1.92,0-1.92,1.56v.37c0,.55.51,1.2,1.55,2a11.9,11.9,0,0,1,2.47,2.34q.91,1.18,0,4.31l-9.92,23.54-10.7-24.85a7.16,7.16,0,0,1-.55-3.48,6.33,6.33,0,0,1,1.11-2,3.19,3.19,0,0,0,.82-1.88v-.37c0-1-.58-1.56-1.73-1.56l-17.14,0c-1.29,0-1.93.49-1.93,1.47v.46c0,.79.65,1.85,2,3.16a15.75,15.75,0,0,1,3,4L663.37,102q-5.24,12.82-9.46,12.82a2.85,2.85,0,0,1-2.51-1.7,13.35,13.35,0,0,1-1.42-3.8,8.51,8.51,0,0,0-1.92-3.81,5.05,5.05,0,0,0-4-1.7,5.37,5.37,0,0,0-4,1.51,5.57,5.57,0,0,0-1.47,4q0,3.75,3.8,6.78a15.07,15.07,0,0,0,9.67,3,11.75,11.75,0,0,0,5.13-1.19,16.48,16.48,0,0,0,4.13-2.74,22.25,22.25,0,0,0,3.35-4.26q1.7-2.7,2.52-4.35t2-4.31L686.5,64.61a15.83,15.83,0,0,1,2.8-3.94c1.26-1.34,1.88-2.41,1.88-3.21V57C691.19,56,690.58,55.54,689.35,55.54Z"/><path class="cls-1" d="M62.52,97.14l1.24-.56.23-.1,1.14-.5c.45-.19.91-.39,1.37-.57l.45-.2.36-.14,1.14-.47.63-.25,1.37-.54L71,93.6,72.7,93l.29-.12c1.17-.43,2.34-.84,3.53-1.25l.71-.25L79,90.73l.27-.09c.68-.23,1.35-.45,2-.66l1.86-.59.2-.06,1.81-.55.14,0,2.12-.62.43-.13.41-.12,2.52-.71.15,0,.28-.08.66-.18.16,0,1.24-.33.58-.16,1.67-.44.79-.2,1.78-.46.72-.17.82-.21.81-.2,1.37-.34h0l2.57-.62.52-.12,2.39-.57.17,0,.2,0,2.75-.63V28.46a2.66,2.66,0,0,0-.72-1.83l-.16-.15a2.71,2.71,0,0,0-1.27-.65h0l-.2,0H63.48l-.21,0h-.08l-.15,0a2.66,2.66,0,0,0-1,.52,2.32,2.32,0,0,0-.35.35.86.86,0,0,0-.14.18,2.22,2.22,0,0,0-.23.39,3.34,3.34,0,0,0-.17.44,2.82,2.82,0,0,0-.09.71V97.81l.45-.22ZM86.64,28.67H104a2.88,2.88,0,0,1,2.9,2.85v48.1l-.16,0-2.42.56-.52.12-2.59.61h0l-1.38.34-.82.2-.82.2-.73.18-1.8.45-.8.21L93.12,83l-.58.15-1.25.33-.16,0c-.22.06-.45.11-.67.18l-.28.07-.15.05-2.54.7-.42.12-.43.12ZM72.09,37.1a5.7,5.7,0,1,1-5.69,5.7A5.69,5.69,0,0,1,72.09,37.1Zm0,18.82a5.69,5.69,0,1,1-5.69,5.69A5.69,5.69,0,0,1,72.09,55.92Z"/><path class="cls-1" d="M8.67,81l.67,0,.86,0h.3l.25,0,.8,0,1.4.07,1.55.1.79.07,1.64.15c2.62.25,5.42.63,8.36,1.18,1,.18,2,.38,3,.6l.13,0,1,.23.23,0,1,.25.12,0,.07,0,.5.12.26.07.12,0,.51.14h0l.11,0,.51.15h0l.21.06.76.22.3.09.76.23.11,0,0,0h0l.51.17s0,0,0,0l.56.17h0l.39.13.38.13.32.11.33.11,1.3.47.06,0h0l.58.22,0,0,0,0h0l.06,0a0,0,0,0,1,0,0l.59.23.07,0,0,0,.2.07.44.18.19.08.64.26h0l.17.07.14.06c.32.14.63.27.94.42l.64.28.63.29.64.3,0,0,.13.07a1.11,1.11,0,0,1,.19.09l.37.17.83.42.93.48,0,0a.7.7,0,0,0,.17.09,1.36,1.36,0,0,0,.24.13l.16.1h0l.59.32.28.15.66.39.13.07.13.08.62.36.17.1.21.13.4.24s0,0,.07,0l.54.34a.55.55,0,0,1,.14.09c.19.11.37.23.55.35l.36.23.56.38.19.13.17.1s0,0,0,0l.06,0,.12.08.23.16.32.22h0l.61.43,0,0,.24.18.4.29.26.19a.71.71,0,0,0,.14.1l0,0,.53.41.27.2.27.21V73.43c-.53-.46-1.06-.9-1.6-1.34A60.38,60.38,0,0,0,50.18,68l-.1-.07-.58-.35-.18-.12c-1.28-.78-2.56-1.5-3.86-2.18A78.53,78.53,0,0,0,19.1,57.41c-3-.38-5.84-.59-8.35-.69-1.49-.07-2.87-.1-4.12-.11h0c0,.19-.11.37-.15.56l-.15.56C6,58.85,5.78,60,5.54,61.1q-.66,3.19-1,6.46c-.17,1.5-.3,3-.37,4.53C4,73.39,4,74.69,4,76c0,.37,0,.75,0,1.12s0,.71,0,1.07v0c0,.42,0,.84.06,1.25s0,.58,0,.86,0,.47,0,.7h.36C5.76,81,7.13,81,8.67,81Z"/><path class="cls-1" d="M11.37,53.18l1,0c1,.06,2,.13,3.08.22l.83.07.64.06.74.08,1.47.17.61.07,2.58.36c1.14.18,2.31.38,3.5.61.71.13,1.42.28,2.13.44l1,.22,1.35.32c2,.5,4,1.08,6.12,1.76l1,.33c1.15.4,2.3.83,3.46,1.29l1.42.59.24.1c.51.22,1,.44,1.52.68l.14.06,1.62.77,0,0h0q1,.53,2.1,1.08l.92.51c1.15.64,2.28,1.31,3.41,2,.39.25.78.5,1.16.76.83.55,1.66,1.13,2.48,1.74.54.4,1.08.81,1.62,1.24V45.48c-.46-.41-.92-.79-1.38-1.17q-.46-.39-.93-.75c-.47-.37-.94-.73-1.42-1.08l-1-.68c-.31-.23-.63-.45-1-.67l-1-.64-1-.62-1.34-.82a66.74,66.74,0,0,0-9.32-4.56A76.45,76.45,0,0,0,32,32,84.24,84.24,0,0,0,20.9,29.7h0l-.24.28-.24.28s0,0-.05.06l-.42.52-.09.12a.64.64,0,0,0-.1.13l-.19.22-.15.19-.13.18L19,32c-.07.09-.14.17-.2.26l-.12.15a.76.76,0,0,1-.11.14,1.63,1.63,0,0,0-.11.17c-.25.31-.48.63-.72.94l-.16.23-.73,1-.32.47-.54.79-.35.53-.15.23c-.11.17-.22.34-.32.51l-.17.26-.24.38-.69,1.13-.07.12-.35.61c-.09.14-.17.28-.25.43l-.24.41c-.2.36-.4.72-.59,1.08l-.12.22-.06.12-.06.1c-.08.14-.15.29-.22.44a.39.39,0,0,0-.06.11L12,43l0,.06,0,.06c-.08.15-.16.29-.23.44l-.09.18-.09.18c-.14.27-.26.54-.4.82L11,45c-.08.17-.17.35-.25.53h0a.14.14,0,0,0,0,.06c-.13.27-.26.54-.38.81s-.21.48-.32.71a2.29,2.29,0,0,0-.1.23c-.1.24-.21.47-.3.71s-.18.42-.26.63-.28.69-.42,1-.22.56-.32.84-.22.56-.32.85-.21.6-.32.91l-.27.78,3,.09Z"/><path class="cls-1" d="M141.84,46.82h0c0,.11.1.21.14.31Z"/><path class="cls-1" d="M109.3,86.2l-1.77.41-.62.14-2.75.65-1.85.45-.52.12-1.86.47-1.8.46-.32.08-.33.08-1.31.34-.48.13-.24.06-2.36.64a1.41,1.41,0,0,0-.22.06,1.66,1.66,0,0,0-.21.06l-1.07.29c-.39.11-.78.21-1.17.33l-.37.1-.33.1-2.48.72h0l-.12,0-1.28.38-.52.16-1.39.43-.89.28-1.39.44-.74.24-4.39,9.54-1.7,3.68L62,135a98,98,0,0,0,27.64-3.14l17.75-41.17.15-.33Z"/><path class="cls-1" d="M32.65,117.69q2.51-2.62,5.25-5A86.82,86.82,0,0,1,45,107.08l1.33-.92c.57-.39,1.16-.78,1.75-1.16l.67-.43c.45-.29.9-.58,1.36-.86l.87-.52q1.3-.78,2.64-1.53l1.28-.71,1.29-.69c-.85-.7-1.71-1.36-2.58-2l-.09,0a63.31,63.31,0,0,0-13.63-7.56A83.83,83.83,0,0,0,16.8,85.1h-.16l-2.73-.24-1-.06-2.2-.12h-.28l-.89,0c-1.48,0-2.83-.06-4-.06h-1c0,.13,0,.25,0,.38s0,.24,0,.37.05.3.07.45,0,.38.07.56,0,.32.07.48a.15.15,0,0,1,0,.07l.09.54,0,.23c.07.41.14.82.22,1.23l0,.19s0,0,0,.06l.12.64c0,.24.09.49.14.73l.09.39c0,.24.09.47.15.7s0,.25.08.37.07.31.1.46.13.56.2.83c0,.06,0,.11,0,.17s.08.3.11.45.09.32.13.47l.12.46a.43.43,0,0,0,0,0c.08.3.17.59.25.87s.1.39.16.57c.13.48.28.95.43,1.42,0,.14.09.28.13.42l.19.59c0,.14.09.28.14.41l.07.18a2.76,2.76,0,0,0,.08.27l.09.25,0,.06a.56.56,0,0,0,0,.12.31.31,0,0,0,0,.08.56.56,0,0,1,0,.12,1.46,1.46,0,0,1,.07.19l0,0s0,0,0,0l0,.06a.31.31,0,0,0,0,.08c0,.09.07.18.1.26s.05.14.07.2l0,.1h0l0,0a.14.14,0,0,0,0,.07s0,0,0,.06l.1.27a.58.58,0,0,0,.05.11l0,.08a.93.93,0,0,0,0,.13,2.33,2.33,0,0,1,.11.28c.06.13.11.27.16.41s.17.41.26.63c0,0,0,0,0,0s0,0,0,.06l.13.28a3.65,3.65,0,0,0,.14.35l.07.18c0,.11.09.21.14.31a0,0,0,0,0,0,0,.39.39,0,0,0,0,.09l0,.07c.2.46.4.91.61,1.36,0,0,0,0,0,.06a0,0,0,0,1,0,0l0,0s0,0,0,.06a.31.31,0,0,0,.05.1.27.27,0,0,0,.05.11.21.21,0,0,0,0,.07.24.24,0,0,0,.05.1.61.61,0,0,0,0,.12,1.19,1.19,0,0,0,.08.16c0,.06.05.12.08.17l0,0h0a.52.52,0,0,1,.07.15l.07.14.24.49c.17.32.32.64.49,1l.06.11a1.92,1.92,0,0,0,.18.35l0,.08a.05.05,0,0,1,0,0l.06.12a1,1,0,0,1,.08.14.64.64,0,0,0,.08.14l.09.16s0,0,0,.06l0,0,.06.12c.13.26.28.5.41.75l.11.19a.3.3,0,0,1,.06.11.47.47,0,0,0,.06.09l0,.08.09.16.19.33,0,.07,0,0a.41.41,0,0,0,0,.09,0,0,0,0,0,0,0c.07.12.15.25.21.37l.08.12,0,0s0,0,0,0l.05.08,0,0,.1.17.16.27s.06.1.1.15l0,.09,0,.06h0a.05.05,0,0,0,0,0s0,0,0,0a.46.46,0,0,1,.09.15.18.18,0,0,1,.05.07s0,0,0,0l.06.08.19.32.15.24.28.43.12.19s0,0,0,0l.07.11.22.33.45.66.05.08,0,0,0,.07.33.47a.56.56,0,0,1,.05.08l.2.28c.07.1.13.2.2.29h0l0,0,.06.09.14.19.06.07c0,.09.12.17.18.26l.07.09.38.51c.07.1.15.2.21.3s.21.27.31.4.25.33.38.5l.08.1,1.06,1.32.16.2,0,0,.08.11.31.36.43.51.24.28.11.13.11.12c.17.21.35.4.53.6l.25.29,0,.06.09.09L25,126.84l0,0q2.25-3.15,4.76-6.09C30.75,119.72,31.68,118.69,32.65,117.69Z"/><path class="cls-1" d="M102,127.35c2-.94,4-2,5.9-3.06l1.16-.68.24-.14.78-.48a73.88,73.88,0,0,0,10.91-8.3,78.7,78.7,0,0,0,9-9.79l.06-.07c.14-.18.27-.34.4-.52l0,0,.07-.08.13-.17c.06-.08.1-.16.17-.24l.49-.66.29-.39c.1-.13.18-.26.27-.38l.56-.78c.07-.11.16-.22.23-.34a1.43,1.43,0,0,0,.14-.2,6.3,6.3,0,0,0,.37-.53s0,0,0,0c.35-.51.69-1,1-1.55.08-.11.15-.23.23-.35.21-.34.44-.68.65-1,0,0,0,0,0,0h0a1.42,1.42,0,0,1,.11-.18l.23-.37c.11-.18.22-.37.34-.55s.07-.12.11-.18.08-.12.11-.18l.18-.29.22-.38c.12-.21.24-.42.37-.63l.37-.64a0,0,0,0,0,0,0c.16-.27.31-.54.46-.81l.42-.75a.35.35,0,0,1,.05-.08v0a.79.79,0,0,0,0-.09l0,0,.11-.21c.09-.16.17-.32.25-.48l.1-.17s0,0,0,0,0,0,0,0a.41.41,0,0,0,.05-.09.59.59,0,0,0,0-.08c.05-.09.1-.17.14-.26l.09-.17,0,0a.41.41,0,0,1,.05-.09l.29-.55.1-.22a.07.07,0,0,0,0-.06,1.74,1.74,0,0,0,.1-.19L140,89c.11-.21.22-.44.32-.66s.22-.44.33-.66l.12-.26c0-.06.06-.13.09-.18l.43-.9c.11-.24.22-.49.34-.73a1,1,0,0,1,.08-.18,2.29,2.29,0,0,1,.1-.23c.13-.28.25-.54.37-.82l.22-.51c.07-.15.13-.29.19-.44l.06-.11c.11-.28.23-.55.35-.83s.11-.27.17-.4l.06-.15.06-.16a.09.09,0,0,0,0-.06l.1-.22c.1-.24.19-.48.28-.72h0l.07-.16c.07-.19.15-.38.22-.56l.16-.42c.06-.12.1-.24.15-.36l.14-.37a3.65,3.65,0,0,0,.14-.35l.25-.66c-2.79.82-5.74,1.64-8.88,2.45-.74.2-1.5.38-2.26.57h0v0h0l-.67.17-.28.07-.36.09L131,81.6l-1.28.3h0l-.8.17-.24.06-.11,0c-.16,0-.31.06-.46.11H128l-.43.09-.32.06h0l-.11,0-.12,0h0l-.35.07-.13,0-.17,0-.55.12-.2,0-.16,0-.1,0h-.07c-.25,0-.5.11-.75.15l-.32.07-1,.19-1,.2-.23,0-.57.1c-.24.06-.49.1-.74.15l-.21,0-1.15.22q-2.58.49-5.27,1.06v.05l-.59.14-2.32,5.38-17.2,39.88A77.6,77.6,0,0,0,102,127.35Z"/><path class="cls-1" d="M34.76,131.21c2.17.54,4.69,1.11,7.48,1.64,2.6.49,5.44.94,8.48,1.3,2.33.28,4.86.51,7.55.66L71,107.08,76.42,95.4,74.76,96l-1.2.45-.58.22L72,97c-.86.33-1.71.68-2.56,1l-.26.1c-.79.32-1.58.65-2.36,1l-.17.07-.46.19-.2.09-.34.15-.15.07-.12,0,0,0-.05,0-.29.13,0,0-.27.12-.27.12-.18.08-.06,0-.11,0-.09,0-.13.06h0l-.11,0h0l-.59.27-.39.19-1,.45-1.62.78v0h0c-.7.34-1.38.69-2.06,1.05s-1.34.71-2,1.06l-1.75,1c-1,.58-2,1.17-3,1.77a82.29,82.29,0,0,0-16.19,13.07c-.72.75-1.41,1.51-2.09,2.28l-.09.09a78.92,78.92,0,0,0-5.26,6.69l.2.07.09,0,.15.05h.05l.11,0,.16.05h0l.4.13.09,0,.13,0,.06,0,.09,0,0,0h.06l.19.06.52.15.09,0,.16.05.27.07.48.14.31.09.06,0h.06l.61.17.13,0,.25.07.26.07a.07.07,0,0,1,.06,0h0l.35.09c.11,0,.24.07.36.09L34,131l0,0,.17,0h0l0,0,.34.09Z"/><path class="cls-1" d="M143.1,90.64c-.06.12-.12.23-.17.35-.35.7-.71,1.38-1.07,2.06-.18.35-.37.69-.56,1-.05.11-.11.22-.17.33l-.27.48-.09.17h0a0,0,0,0,1,0,0l-.39.69-.12.21-.3.52-.09.16-.52.88a.83.83,0,0,0-.07.13L139,98c-.07.13-.15.26-.23.38l-.32.53a.91.91,0,0,0-.08.13l-.09.13-.25.41-.33.52c-.12.2-.26.4-.38.6l-.16.23v0l-.56.82c0,.08-.09.14-.14.22l-.35.51-.07.11-.56.81-.14.2-.19.26-.19.28-.08.1c-.18.26-.37.51-.56.77v0l-.58.78-1.18,1.55c-.2.24-.4.5-.6.75l-.31.38-.3.37-.18.21-.32.38,0,.06q-.37.45-.75.87l-.05.07-.08.09-.12.14s0,0,0,0-.19.23-.3.34l-.44.5,0,0a3,3,0,0,1-.24.26l-.06.08-.51.56-.48.51a1,1,0,0,1-.14.15l0,0-.51.54-.14.15-.14.13-.13.14-.34.35-.19.2,0,0-.51.51-.12.12-.33.32-.22.21h0l-.68.65-.08.07-.14.13c-.08.08-.17.15-.25.24l0,0c-.28.28-.58.54-.87.81l-1.25,1.1-.8.67-.38.32-.09.08-.13.1-.27.22-.47.38a1.26,1.26,0,0,1-.17.13c-.13.11-.26.22-.41.33l-.17.13c-.28.22-.57.45-.86.66l-.33.25-.46.35-.35.26-.65.46-.34.25-.34.24-.68.45c-.11.09-.23.17-.35.25l-.35.23-.68.45a3.37,3.37,0,0,1-.35.22l-.49.32s0,0,0,0l-.33.22L112,126a0,0,0,0,0,0,0l-.14.09-1,.59-.71.42-.11.06,0,0-.44.25h0a.54.54,0,0,1-.15.09.19.19,0,0,1-.09,0l-.24.14-.2.11-.33.19-.37.2-.06,0-.33.17-.07.05-.46.24-.29.14-1.06.55-.24.12-.39.2-.09,0h0l-.21.11-.35.16a.8.8,0,0,1-.16.08l-.44.21-.38.18-.13.06A82,82,0,0,1,87.66,136a101.43,101.43,0,0,1-23.16,2.57c-3.4,0-6.63-.15-9.62-.39l-2.64-.25-1.42-.15-.64-.08c-.26,0-.53-.06-.8-.1-2.64-.33-5.11-.72-7.41-1.15l-.95-.17-.86-.17-2.33-.48-.38-.08-.18-.05-.18,0-.23-.05-.23,0-.44-.1-.8-.19-.9-.22c1.06.76,2.14,1.48,3.24,2.18a73,73,0,0,0,7.77,4.23c.84.39,1.69.78,2.55,1.13a71.56,71.56,0,0,0,25.87,5.58c.69,0,1.38,0,2.07,0a72,72,0,0,0,68.63-50.16c.42-1.31.79-2.64,1.13-4,.11-.42.21-.83.31-1.25l.21-.93c0-.06,0-.12,0-.18s.1-.43.14-.65c0-.06,0-.12,0-.18a2,2,0,0,0,0-.24,1.6,1.6,0,0,0,.05-.21,1.55,1.55,0,0,1,0-.21l.24-1.25v-.08l.06-.32,0-.14,0-.18h0c0-.13,0-.24.06-.35V87.6c0-.08,0-.17.05-.25s0-.07,0-.1l.09-.55c0-.06,0-.12,0-.18l.06-.37c0-.24.06-.48.09-.71s.06-.53.09-.78l.09-.71c0-.1,0-.22,0-.33v-.08a.13.13,0,0,0,0-.06c0-.15,0-.29,0-.42a1.8,1.8,0,0,0,0-.22c0-.06,0-.13,0-.19s0-.07,0-.1,0-.34,0-.51,0-.09,0-.14c0-.2,0-.4,0-.6v0s0,0,0,0c0-.23,0-.47,0-.7s0-.5,0-.76c-.7,1.83-1.44,3.62-2.2,5.36S144,88.86,143.1,90.64Z"/><path class="cls-2" d="M128.56,82.16l-.53.12h.07C128.25,82.22,128.4,82.2,128.56,82.16Z"/><path class="cls-2" d="M127.28,82.43l-.11,0,.11,0Z"/><path class="cls-2" d="M151.89,72.09A76,76,0,0,0,22.25,22.25,77,77,0,0,0,10.75,37a74.84,74.84,0,0,0-7,15.32A75.71,75.71,0,0,0,.1,72.09C0,73.39,0,74.69,0,76A76,76,0,0,0,150.58,90.64,77.4,77.4,0,0,0,152,76Q152,74,151.89,72.09Zm-10-25.27.13.3c0-.1-.09-.2-.14-.31ZM113.45,85.26l.59-.14v-.05q2.68-.57,5.27-1.06l1.15-.22.21,0c.25,0,.5-.09.74-.15l.57-.1.23,0,1-.2,1-.19.32-.07c.25,0,.5-.1.75-.15h.07l.1,0,.16,0,.2,0,.55-.12.17,0,.13,0,.35-.07h0l.12,0,.11,0,.32-.06.43-.09.53-.12.11,0,.24-.06.8-.17h0l1.28-.3,1.33-.32.36-.09.28-.07.67-.17h0v0h0c.76-.19,1.52-.37,2.26-.57,3.14-.81,6.09-1.63,8.88-2.45l-.25.66a3.65,3.65,0,0,1-.14.35l-.14.37c0,.12-.09.24-.15.36l-.16.42c-.07.18-.15.37-.22.56l-.07.16h0c-.09.24-.18.48-.28.72l-.1.22a.09.09,0,0,1,0,.06l-.06.16-.06.15c-.06.13-.11.27-.17.4s-.24.55-.35.83l-.06.11c-.06.15-.12.29-.19.44l-.22.51c-.12.28-.24.54-.37.82a2.29,2.29,0,0,0-.1.23,1,1,0,0,0-.08.18c-.12.24-.23.49-.34.73l-.43.9s-.06.12-.09.18l-.12.26c-.11.22-.21.45-.33.66s-.21.45-.32.66l-.32.63a1.74,1.74,0,0,1-.1.19.07.07,0,0,1,0,.06l-.1.22-.29.55a.41.41,0,0,0-.05.09l0,0-.09.17c0,.09-.09.17-.14.26a.59.59,0,0,1,0,.08.41.41,0,0,1-.05.09s0,0,0,0,0,0,0,0l-.1.17c-.08.16-.16.32-.25.48l-.11.21,0,0a.79.79,0,0,1,0,.09v0a.35.35,0,0,0-.05.08l-.42.75c-.15.27-.3.54-.46.81a0,0,0,0,1,0,0l-.37.64c-.13.21-.25.42-.37.63l-.22.38-.18.29c0,.06-.08.12-.11.18s-.07.13-.11.18-.23.37-.34.55l-.23.37a1.42,1.42,0,0,0-.11.18h0s0,0,0,0c-.21.35-.44.69-.65,1-.08.12-.15.24-.23.35-.34.52-.68,1-1,1.55,0,0,0,0,0,0a6.3,6.3,0,0,1-.37.53,1.43,1.43,0,0,1-.14.2c-.07.12-.16.23-.23.34l-.56.78c-.09.12-.17.25-.27.38l-.29.39-.49.66c-.07.08-.11.16-.17.24l-.13.17-.07.08,0,0c-.13.18-.26.34-.4.52l-.06.07a78.7,78.7,0,0,1-9,9.79,73.88,73.88,0,0,1-10.91,8.3l-.78.48-.24.14-1.16.68c-1.91,1.1-3.87,2.12-5.9,3.06a77.6,77.6,0,0,1-8.08,3.17l17.2-39.88ZM89.63,131.81A98,98,0,0,1,62,135l12.83-27.87,1.7-3.68,4.39-9.54.74-.24L83,93.18l.89-.28,1.39-.43.52-.16,1.28-.38.12,0h0l2.48-.72.33-.1.37-.1c.39-.12.78-.22,1.17-.33l1.07-.29a1.66,1.66,0,0,1,.21-.06,1.41,1.41,0,0,1,.22-.06l2.36-.64.24-.06.48-.13,1.31-.34.33-.08.32-.08,1.8-.46,1.86-.47.52-.12,1.85-.45,2.75-.65.62-.14,1.77-.41-1.77,4.11-.15.33ZM61.06,28.46a2.82,2.82,0,0,1,.09-.71,3.34,3.34,0,0,1,.17-.44,2.22,2.22,0,0,1,.23-.39.86.86,0,0,1,.14-.18,2.32,2.32,0,0,1,.35-.35,2.66,2.66,0,0,1,1-.52l.15,0h.08l.21,0h44.63l.2,0h0a2.71,2.71,0,0,1,1.27.65l.16.15a2.66,2.66,0,0,1,.72,1.83V82.27l-2.75.63-.2,0-.17,0-2.39.57-.52.12-2.57.62h0l-1.37.34-.81.2-.82.21-.72.17-1.78.46-.79.2-1.67.44-.58.16-1.24.33-.16,0-.66.18-.28.08-.15,0-2.52.71-.41.12-.43.13-2.12.62-.14,0-1.81.55-.2.06L81.35,90c-.69.21-1.36.43-2,.66l-.27.09-1.81.61-.71.25c-1.19.41-2.36.82-3.53,1.25L72.7,93,71,93.6l-.56.21-1.37.54-.63.25-1.14.47-.36.14-.45.2c-.46.18-.92.38-1.37.57l-1.14.5-.23.1-1.24.56-1,.45-.45.22ZM8,52.28c.11-.31.22-.61.32-.91s.21-.57.32-.85.21-.56.32-.84.27-.7.42-1,.17-.42.26-.63.2-.47.3-.71a2.29,2.29,0,0,1,.1-.23c.11-.23.21-.47.32-.71s.25-.54.38-.81a.14.14,0,0,1,0-.06h0c.08-.18.17-.36.25-.53l.11-.22c.14-.28.26-.55.4-.82l.09-.18.09-.18c.07-.15.15-.29.23-.44l0-.06L12,43l.07-.13a.39.39,0,0,1,.06-.11c.07-.15.14-.3.22-.44l.06-.1.06-.12.12-.22c.19-.36.39-.72.59-1.08l.24-.41c.08-.15.16-.29.25-.43l.35-.61.07-.12.69-1.13.24-.38.17-.26c.1-.17.21-.34.32-.51l.15-.23.35-.53.54-.79.32-.47.73-1,.16-.23c.24-.31.47-.63.72-.94a1.63,1.63,0,0,1,.11-.17.76.76,0,0,0,.11-.14l.12-.15c.06-.09.13-.17.2-.26l.26-.33.13-.18.15-.19.19-.22a.64.64,0,0,1,.1-.13l.09-.12.42-.52s0,0,.05-.06l.24-.28.24-.28h0A84.24,84.24,0,0,1,32,32a76.45,76.45,0,0,1,7.3,2.46,66.74,66.74,0,0,1,9.32,4.56l1.34.82,1,.62,1,.64c.32.22.64.44,1,.67l1,.68c.48.35.95.71,1.42,1.08q.47.36.93.75c.46.38.92.76,1.38,1.17V68.8c-.54-.43-1.08-.84-1.62-1.24-.82-.61-1.65-1.19-2.48-1.74-.38-.26-.77-.51-1.16-.76-1.13-.72-2.26-1.39-3.41-2l-.92-.51q-1-.56-2.1-1.08h0l0,0-1.62-.77L44,60.59c-.5-.24-1-.46-1.52-.68l-.24-.1-1.42-.59c-1.16-.46-2.31-.89-3.46-1.29l-1-.33c-2.07-.68-4.1-1.26-6.12-1.76l-1.35-.32-1-.22c-.71-.16-1.42-.31-2.13-.44-1.19-.23-2.36-.43-3.5-.61l-2.58-.36-.61-.07-1.47-.17-.74-.08-.64-.06-.83-.07c-1.07-.09-2.09-.16-3.08-.22l-1,0-.62,0-3-.09Zm-3.85,28c0-.28,0-.57,0-.86s0-.83-.06-1.25v0c0-.36,0-.71,0-1.07S4,76.36,4,76c0-1.3,0-2.6.11-3.9.07-1.52.2-3,.37-4.53q.39-3.27,1-6.46c.24-1.13.5-2.25.79-3.37l.15-.56c0-.19.1-.37.15-.56h0c1.25,0,2.63,0,4.12.11,2.51.1,5.32.31,8.35.69a78.53,78.53,0,0,1,26.36,7.85c1.3.68,2.58,1.4,3.86,2.18l.18.12.58.35.1.07a60.38,60.38,0,0,1,5.72,4.11c.54.44,1.07.88,1.6,1.34V96.76l-.27-.21-.27-.2-.53-.41,0,0a.71.71,0,0,1-.14-.1L56,95.61l-.4-.29-.24-.18,0,0-.61-.43h0l-.32-.22-.23-.16-.12-.08-.06,0s0,0,0,0l-.17-.1-.19-.13-.56-.38-.36-.23c-.18-.12-.36-.24-.55-.35a.55.55,0,0,0-.14-.09l-.54-.34s-.05,0-.07,0l-.4-.24-.21-.13-.17-.1L50,91.65l-.13-.08-.13-.07-.66-.39L48.79,91l-.59-.32h0l-.16-.1a1.36,1.36,0,0,1-.24-.13.7.7,0,0,1-.17-.09l0,0-.93-.48-.83-.42-.37-.17a1.11,1.11,0,0,0-.19-.09l-.13-.07,0,0-.64-.3-.63-.29-.64-.28c-.31-.15-.62-.28-.94-.42l-.14-.06-.17-.07h0l-.64-.26-.19-.08-.44-.18-.2-.07,0,0-.07,0-.59-.23a0,0,0,0,0,0,0l-.06,0h0l0,0,0,0L39,86.46h0l-.06,0L37.61,86l-.33-.11L37,85.75l-.38-.13-.39-.13h0l-.56-.17s0,0,0,0l-.51-.17h0l0,0-.11,0-.76-.23-.3-.09-.76-.22-.21-.06h0l-.51-.15-.11,0h0l-.51-.14-.12,0-.26-.07-.5-.12-.07,0-.12,0-1-.25-.23,0-1-.23-.13,0c-1-.22-2-.42-3-.6-2.94-.55-5.74-.93-8.36-1.18l-1.64-.15-.79-.07L13,81.22l-1.4-.07-.8,0-.25,0h-.3l-.86,0-.67,0c-1.54,0-2.91,0-4.13,0H4.18C4.16,80.78,4.15,80.54,4.14,80.31ZM25,126.84l-2.46-2.59-.09-.09,0-.06-.25-.29c-.18-.2-.36-.39-.53-.6l-.11-.12-.11-.13-.24-.28-.43-.51-.31-.36-.08-.11,0,0-.16-.2-1.06-1.32L19,120c-.13-.17-.26-.33-.38-.5s-.2-.27-.31-.4-.14-.2-.21-.3l-.38-.51-.07-.09c-.06-.09-.13-.17-.18-.26l-.06-.07-.14-.19-.06-.09,0,0h0c-.07-.09-.13-.19-.2-.29l-.2-.28a.56.56,0,0,0-.05-.08l-.33-.47,0-.07,0,0-.05-.08-.45-.66-.22-.33-.07-.11s0,0,0,0l-.12-.19-.28-.43-.15-.24-.19-.32-.06-.08s0,0,0,0a.18.18,0,0,0-.05-.07.46.46,0,0,0-.09-.15s0,0,0,0a.05.05,0,0,1,0,0h0l0-.06,0-.09s-.06-.11-.1-.15l-.16-.27-.1-.17,0,0-.05-.08s0,0,0,0l0,0-.08-.12c-.06-.12-.14-.25-.21-.37a0,0,0,0,1,0,0,.41.41,0,0,1,0-.09l0,0,0-.07-.19-.33-.09-.16,0-.08a.47.47,0,0,1-.06-.09.3.3,0,0,0-.06-.11l-.11-.19c-.13-.25-.28-.49-.41-.75l-.06-.12,0,0s0,0,0-.06l-.09-.16a.64.64,0,0,1-.08-.14,1,1,0,0,0-.08-.14l-.06-.12a.05.05,0,0,0,0,0l0-.08a1.92,1.92,0,0,1-.18-.35l-.06-.11c-.17-.32-.32-.64-.49-1l-.24-.49-.07-.14a.52.52,0,0,0-.07-.15h0l0,0c0-.05,0-.11-.08-.17a1.19,1.19,0,0,1-.08-.16.61.61,0,0,1,0-.12.24.24,0,0,1-.05-.1.21.21,0,0,1,0-.07.27.27,0,0,1-.05-.11.31.31,0,0,1-.05-.1s0,0,0-.06l0,0a0,0,0,0,0,0,0s0,0,0-.06c-.21-.45-.41-.9-.61-1.36l0-.07a.39.39,0,0,1,0-.09,0,0,0,0,1,0,0c0-.1-.09-.2-.14-.31L9.64,104a3.65,3.65,0,0,1-.14-.35l-.13-.28s0,0,0-.06,0,0,0,0c-.09-.22-.17-.43-.26-.63s-.1-.28-.16-.41a2.33,2.33,0,0,0-.11-.28.93.93,0,0,1,0-.13l0-.08a.58.58,0,0,1-.05-.11l-.1-.27s0,0,0-.06a.14.14,0,0,1,0-.07l0,0h0l0-.1c0-.06-.05-.13-.07-.2s-.06-.17-.1-.26a.31.31,0,0,1,0-.08l0-.06s0,0,0,0l0,0a1.46,1.46,0,0,0-.07-.19.56.56,0,0,0,0-.12.31.31,0,0,1,0-.08.56.56,0,0,1,0-.12l0-.06-.09-.25a2.76,2.76,0,0,1-.08-.27l-.07-.18c0-.13-.09-.27-.14-.41l-.19-.59c0-.14-.09-.28-.13-.42-.15-.47-.3-.94-.43-1.42-.06-.18-.11-.37-.16-.57s-.17-.57-.25-.87a.43.43,0,0,1,0,0l-.12-.46c0-.15-.08-.31-.13-.47s-.08-.3-.11-.45,0-.11,0-.17C6,93,6,92.7,5.88,92.42s-.07-.31-.1-.46-.06-.25-.08-.37-.1-.46-.15-.7l-.09-.39c0-.24-.09-.49-.14-.73l-.12-.64s0,0,0-.06l0-.19c-.08-.41-.15-.82-.22-1.23l0-.23-.09-.54a.15.15,0,0,0,0-.07c0-.16,0-.32-.07-.48s0-.37-.07-.56,0-.3-.07-.45,0-.25,0-.37,0-.25,0-.38h1c1.21,0,2.56,0,4,.06l.89,0h.28l2.2.12,1,.06,2.73.24h.16a83.83,83.83,0,0,1,23.07,5.54A63.31,63.31,0,0,1,53.5,98.2l.09,0c.87.65,1.73,1.31,2.58,2l-1.29.69-1.28.71q-1.34.75-2.64,1.53l-.87.52c-.46.28-.91.57-1.36.86l-.67.43c-.59.38-1.18.77-1.75,1.16l-1.33.92a86.82,86.82,0,0,0-7.08,5.57q-2.74,2.41-5.25,5c-1,1-1.9,2-2.82,3.08q-2.5,2.94-4.76,6.09Zm9.16,4.22h0L34,131l0,0-.31-.08c-.12,0-.25-.06-.36-.09l-.35-.09h0a.07.07,0,0,0-.06,0l-.26-.07-.25-.07-.13,0-.61-.17h-.06l-.06,0-.31-.09-.48-.14L30.4,130l-.16-.05-.09,0-.52-.15-.19-.06h-.06l0,0-.09,0-.06,0-.13,0-.09,0-.4-.13h0l-.16-.05-.11,0h-.05l-.15-.05-.09,0-.2-.07A78.92,78.92,0,0,1,33,122.52l.09-.09c.68-.77,1.37-1.53,2.09-2.28a82.29,82.29,0,0,1,16.19-13.07c1-.6,2-1.19,3-1.77l1.75-1c.67-.35,1.34-.72,2-1.06s1.36-.71,2.06-1.05h0v0l1.62-.78,1-.45.39-.19.59-.27h0l.11,0h0l.13-.06.09,0,.11,0,.06,0,.18-.08.27-.12.27-.12,0,0,.29-.13.05,0,0,0,.12,0,.15-.07.34-.15.2-.09.46-.19.17-.07c.78-.34,1.57-.67,2.36-1l.26-.1c.85-.34,1.7-.69,2.56-1l.94-.35.58-.22,1.2-.45,1.66-.59L71,107.08,58.27,134.81c-2.69-.15-5.22-.38-7.55-.66-3-.36-5.88-.81-8.48-1.3-2.79-.53-5.31-1.1-7.48-1.64l-.18,0-.34-.09ZM147.83,80.54c0,.23,0,.47,0,.7,0,0,0,0,0,0v0c0,.2,0,.4,0,.6,0,0,0,.1,0,.14s0,.34,0,.51,0,.06,0,.1,0,.13,0,.19a1.8,1.8,0,0,1,0,.22c0,.13,0,.27,0,.42a.13.13,0,0,1,0,.06v.08c0,.11,0,.23,0,.33l-.09.71c0,.25-.06.52-.09.78s-.07.47-.09.71l-.06.37c0,.06,0,.12,0,.18l-.09.55s0,.07,0,.1,0,.17-.05.25v.05c0,.11,0,.22-.06.35h0l0,.18,0,.14-.06.32v.08L146.62,90a1.55,1.55,0,0,0,0,.21,1.6,1.6,0,0,1-.05.21,2,2,0,0,1,0,.24c0,.06,0,.12,0,.18,0,.22-.09.44-.14.65s0,.12,0,.18l-.21.93c-.1.42-.2.83-.31,1.25-.34,1.34-.71,2.67-1.13,4A72,72,0,0,1,76,148c-.69,0-1.38,0-2.07,0a71.56,71.56,0,0,1-25.87-5.58c-.86-.35-1.71-.74-2.55-1.13A73,73,0,0,1,37.73,137c-1.1-.7-2.18-1.42-3.24-2.18l.9.22.8.19.44.1.23,0,.23.05.18,0,.18.05.38.08,2.33.48.86.17.95.17c2.3.43,4.77.82,7.41,1.15.27,0,.54.08.8.1l.64.08,1.42.15,2.64.25c3,.24,6.22.39,9.62.39A101.43,101.43,0,0,0,87.66,136a82,82,0,0,0,15.81-5.38l.13-.06.38-.18.44-.21a.8.8,0,0,0,.16-.08l.35-.16.21-.11h0l.09,0,.39-.2.24-.12,1.06-.55.29-.14.46-.24.07-.05.33-.17.06,0,.37-.2.33-.19.2-.11.24-.14a.19.19,0,0,0,.09,0,.54.54,0,0,0,.15-.09h0l.44-.25,0,0,.11-.06.71-.42,1-.59L112,126a0,0,0,0,1,0,0l.13-.08.33-.22s0,0,0,0l.49-.32a3.37,3.37,0,0,0,.35-.22l.68-.45.35-.23c.12-.08.24-.16.35-.25l.68-.45.34-.24.34-.25.65-.46.35-.26.46-.35.33-.25c.29-.21.58-.44.86-.66l.17-.13c.15-.11.28-.22.41-.33a1.26,1.26,0,0,0,.17-.13l.47-.38.27-.22.13-.1.09-.08.38-.32.8-.67,1.25-1.1c.29-.27.59-.53.87-.81l0,0c.08-.09.17-.16.25-.24l.14-.13.08-.07.68-.65h0l.22-.21.33-.32.12-.12.51-.51,0,0,.19-.2.34-.35.13-.14.14-.13.14-.15.51-.54,0,0a1,1,0,0,0,.14-.15l.48-.51.51-.56.06-.08a3,3,0,0,0,.24-.26l0,0,.44-.5c.11-.11.2-.22.3-.34s0,0,0,0l.12-.14.08-.09.05-.07q.38-.42.75-.87l0-.06.32-.38.18-.21.3-.37.31-.38c.2-.25.4-.51.6-.75l1.18-1.55.58-.78v0c.19-.26.38-.51.56-.77l.08-.1.19-.28.19-.26.14-.2.56-.81.07-.11.35-.51c0-.08.1-.14.14-.22l.56-.82v0l.16-.23c.12-.2.26-.4.38-.6l.33-.52.25-.41.09-.13a.91.91,0,0,1,.08-.13l.32-.53c.08-.12.16-.25.23-.38l.23-.36a.83.83,0,0,1,.07-.13l.52-.88.09-.16.3-.52.12-.21.39-.69a0,0,0,0,0,0,0h0l.09-.17.27-.48c.06-.11.12-.22.17-.33.19-.34.38-.68.56-1,.36-.68.72-1.36,1.07-2.06,0-.12.11-.23.17-.35.89-1.78,1.76-3.62,2.58-5.5s1.5-3.53,2.2-5.36C147.86,80,147.84,80.29,147.83,80.54Z"/><circle class="cls-2" cx="72.09" cy="42.8" r="5.69"/><circle class="cls-2" cx="72.09" cy="61.61" r="5.69"/><path class="cls-2" d="M87.49,84.49l2.54-.7.15-.05.28-.07c.22-.07.45-.12.67-.18l.16,0,1.25-.33.58-.15,1.69-.44.8-.21,1.8-.45.73-.18.82-.2.82-.2,1.38-.34h0l2.59-.61.52-.12,2.42-.56.16,0V31.52a2.88,2.88,0,0,0-2.9-2.85H86.64V84.73l.43-.12Z"/></g></g></svg>