<svg xmlns="http://www.w3.org/2000/svg" viewBox="0 0 313.78 243.95"><defs><style>.cls-1{fill:none;}.cls-2{fill:#fff;}.cls-3{fill:#7d974e;}</style></defs><g id="Camada_2" data-name="Camada 2"><g id="Camada_2-2" data-name="Camada 2"><path class="cls-1" d="M141.07,114.07l1.46-.65.26-.12,1.34-.58c.54-.23,1.07-.46,1.62-.68.18-.07.34-.16.53-.23l.41-.17,1.34-.55.74-.29,1.62-.64.65-.24c.65-.26,1.32-.5,2-.76l.34-.13c1.37-.5,2.75-1,4.14-1.48l.84-.28,2.12-.72.31-.1q1.2-.4,2.4-.78c.73-.24,1.47-.47,2.19-.69l.24-.08,2.12-.65.17,0c.83-.25,1.66-.5,2.48-.73l.51-.15.48-.14c1-.29,2-.56,3-.83l.17,0,.33-.1.77-.21.2,0c.48-.13,1-.27,1.46-.39l.67-.19,2-.51c.3-.09.61-.17.92-.24l2.1-.54.84-.21,1-.24,1-.24c.53-.13,1.06-.27,1.6-.39h0l3-.72.61-.14,2.81-.67.2,0,.24,0,3.23-.74V33.42a3.15,3.15,0,0,0-.86-2.15l-.18-.18a3.26,3.26,0,0,0-1.49-.76h0l-.23,0H142.19l-.24,0-.09,0-.18,0a3.05,3.05,0,0,0-1.17.61,2.65,2.65,0,0,0-.41.41,1.73,1.73,0,0,0-.17.21,2.73,2.73,0,0,0-.27.47,2.82,2.82,0,0,0-.19.51,2.92,2.92,0,0,0-.12.83v81.44l.54-.25Zm28.32-80.4h20.36A3.38,3.38,0,0,1,193.16,37V93.5l-.19,0c-.95.21-1.9.43-2.84.66l-.62.13-3,.72s0,0,0,0h0l-1.62.39-1,.24-1,.23-.85.21c-.71.18-1.42.35-2.12.54l-.93.23-2,.52-.68.18-1.47.39-.2.05-.77.22-.34.08-.17.06-3,.82-.49.14-.51.15Zm-17.08,9.9a6.69,6.69,0,1,1-6.68,6.69A6.69,6.69,0,0,1,152.31,43.57Zm0,22.1a6.69,6.69,0,1,1-6.68,6.68A6.68,6.68,0,0,1,152.31,65.67Z"/><path class="cls-1" d="M77.83,95.17l.79,0,1,0H80l.29,0,.93,0,1.65.09,1.82.12.93.08,1.93.18c3.07.29,6.36.74,9.81,1.38,1.14.22,2.3.45,3.48.71l.15,0,1.17.26.27.07c.38.08.77.18,1.16.28l.14,0,.08,0,.58.15.31.07.15,0,.59.15,0,0,.12,0,.6.16.06,0,.24.07.89.26.35.1.9.27.13,0,0,0h0l.6.2s0,0,0,0l.66.2a.05.05,0,0,0,0,0l.44.15.45.15.38.13.38.13,1.54.55.06,0h0l.68.25,0,0,0,0h0l.07,0h0l.69.27.08,0,0,0,.23.09.52.21.22.09.75.3s0,0,0,0h0a.72.72,0,0,0,.2.09l.16.07,1.11.49c.25.11.5.21.74.33l.75.34.75.35,0,0,.15.07.22.11.43.21,1,.49,1.08.56,0,0,.2.11.28.14.19.12,0,0,.68.37.34.18.77.45a1.19,1.19,0,0,1,.15.09l.16.08.73.43.19.12.25.15.47.28.08.06c.22.13.43.26.63.4a1,1,0,0,1,.17.1l.65.41.42.28.66.44.22.16.2.12s0,0,0,0l.06,0,.15.1.26.18.38.27a0,0,0,0,1,0,0l.72.51s0,0,0,0l.29.2.46.35.31.23.16.12s0,0,0,0l.62.48a3.92,3.92,0,0,1,.32.25l.31.24V86.24c-.62-.55-1.24-1.07-1.87-1.58a73.13,73.13,0,0,0-6.72-4.83l-.12-.08-.68-.42-.21-.13q-2.25-1.38-4.54-2.56a92,92,0,0,0-30.95-9.22c-3.55-.45-6.86-.69-9.8-.81-1.75-.08-3.37-.11-4.84-.13h0c-.05.22-.12.44-.17.66s-.11.43-.17.65q-.51,2-.93,4-.78,3.75-1.23,7.59c-.21,1.76-.36,3.54-.44,5.32-.09,1.52-.13,3-.13,4.58,0,.44,0,.88,0,1.31s0,.84,0,1.26v0l.06,1.46c0,.34,0,.68.05,1s0,.54,0,.82H73C74.41,95.13,76,95.13,77.83,95.17Z"/><path class="cls-1" d="M196,101.23l-2.08.48-.73.17-3.22.76-2.18.53-.61.14-2.19.55-2.11.54c-.13,0-.25.06-.37.09l-.39.1-1.54.4-.56.15-.29.07c-.93.25-1.86.49-2.77.75l-.26.07-.25.07-1.25.35c-.46.12-.91.24-1.37.38l-.44.12-.38.11-2.92.85h0l-.14,0-1.51.45-.6.19-1.64.51-1,.32-1.63.53-.87.28-5.16,11.2-2,4.32-15.07,32.73a115.1,115.1,0,0,0,32.46-3.69l20.85-48.34.17-.39Z"/><path class="cls-1" d="M234.23,55h0a3.92,3.92,0,0,1,.16.36Z"/><path class="cls-1" d="M187.45,149.55c2.38-1.1,4.68-2.3,6.93-3.6.46-.26.9-.51,1.35-.79A1.69,1.69,0,0,0,196,145c.3-.18.61-.36.91-.56a85.34,85.34,0,0,0,12.82-9.75,92.87,92.87,0,0,0,10.57-11.49l.07-.09.47-.6a.13.13,0,0,1,0,0l.08-.1.15-.2.2-.27.58-.78.35-.46.31-.45.65-.91c.09-.13.19-.26.28-.4a1.88,1.88,0,0,0,.16-.23c.16-.21.3-.42.44-.62,0,0,0,0,0,0,.41-.6.81-1.21,1.21-1.82.09-.13.18-.28.26-.41.26-.4.52-.8.77-1.21l0,0h0a1.93,1.93,0,0,1,.13-.21l.27-.43.4-.65.12-.21.14-.22c.07-.11.13-.23.21-.34s.17-.29.25-.43l.44-.75.43-.75s0,0,0,0c.19-.31.36-.63.53-.94s.34-.59.5-.89l0-.1h0a.54.54,0,0,1,0-.11.43.43,0,0,0,0-.07l.13-.24c.11-.19.2-.37.3-.57l.11-.19a0,0,0,0,0,0,0s0,0,0,0a.37.37,0,0,0,.05-.11.19.19,0,0,0,0-.09,1.82,1.82,0,0,0,.16-.31l.11-.19s0,0,0,0l.06-.1.34-.66c.05-.09.08-.17.13-.25l0-.07.12-.23c.12-.24.25-.48.37-.73l.38-.77c.13-.26.26-.52.38-.79a2.09,2.09,0,0,0,.14-.3l.12-.22.5-1.05.39-.86.1-.21a2,2,0,0,1,.12-.27c.15-.32.29-.63.43-1s.18-.4.26-.6l.23-.51.06-.14c.14-.32.27-.64.42-1l.2-.48s0-.11.07-.17a1.34,1.34,0,0,1,.07-.18l0-.07.11-.27c.12-.27.23-.55.34-.84h0c0-.06,0-.12.08-.19s.17-.44.26-.65.13-.33.19-.5.11-.28.18-.42l.15-.43c.06-.14.12-.27.17-.42s.2-.51.29-.77q-4.91,1.45-10.43,2.88l-2.64.67h0v0h0l-.78.2-.33.08-.43.11-1.56.38-1.5.35h0l-.93.2-.28.07-.14,0-.54.13H218l-.5.11-.38.07h0l-.13,0-.13,0h0l-.41.08-.15,0-.21,0-.64.13-.23,0-.19,0a.53.53,0,0,1-.12,0h-.08c-.3.06-.59.13-.89.18l-.37.08-1.18.23-1.2.23-.27,0-.67.13-.87.17-.25.05-1.35.26c-2,.38-4.08.8-6.18,1.24V100l-.7.16-2.72,6.33L178,153.28A93.82,93.82,0,0,0,187.45,149.55Z"/><path class="cls-1" d="M126.19,214.31a7.31,7.31,0,0,0-1.17-3.76,3.5,3.5,0,0,0-3.09-2,3.73,3.73,0,0,0-3.3,2,9.66,9.66,0,0,0-1.24,5.09,17.85,17.85,0,0,0,.53,4.58l6.88-3.46A2.53,2.53,0,0,0,126.19,214.31Z"/><path class="cls-1" d="M106,138.2q2.94-3.07,6.17-5.91a100.31,100.31,0,0,1,8.32-6.54c.51-.37,1-.72,1.55-1.08.67-.46,1.36-.92,2.06-1.37l.79-.5,1.6-1c.33-.2.67-.42,1-.61,1-.62,2.06-1.21,3.11-1.81.49-.28,1-.55,1.5-.82s1-.55,1.51-.82c-1-.82-2-1.6-3-2.35l-.11-.07a74.29,74.29,0,0,0-16-8.87,98.27,98.27,0,0,0-27.09-6.51.65.65,0,0,1-.19,0c-1.09-.1-2.16-.2-3.2-.27l-1.13-.08c-.89,0-1.75-.1-2.58-.13l-.34,0-1,0c-1.74-.06-3.32-.08-4.75-.08H73c0,.15,0,.3,0,.45l.06.44c0,.17,0,.35.07.53l.09.65c0,.19.06.38.08.56a.25.25,0,0,1,0,.08c0,.21.07.43.1.64a2.19,2.19,0,0,1,0,.27c.09.48.17,1,.26,1.44l0,.23s0,.05,0,.07c0,.25.09.5.14.75s.11.57.17.86.06.31.1.46.11.55.17.81.06.3.1.44.08.36.12.55.15.65.24,1a.58.58,0,0,0,0,.19c0,.18.09.37.13.54s.1.37.14.55l.15.54a.14.14,0,0,0,0,.06c.09.34.19.69.28,1s.13.45.19.67c.16.56.33,1.12.5,1.67.06.16.12.33.17.49l.22.69c.06.17.11.33.16.48a1.31,1.31,0,0,0,.08.21c0,.11.07.22.1.32s.07.2.1.3,0,.05,0,.07,0,.09,0,.14a.47.47,0,0,0,0,.09s0,.09,0,.14a2,2,0,0,0,.08.22l0,.06s0,0,0,0a.11.11,0,0,0,0,.06l0,.1a1.92,1.92,0,0,1,.11.31l.09.23a.73.73,0,0,0,0,.12v0s0,0,0,0,0,0,0,.08a.19.19,0,0,1,0,.07c0,.11.09.22.13.32s0,.09.05.13l0,.09a.88.88,0,0,0,0,.15,3.24,3.24,0,0,1,.13.33q.09.23.18.48c.1.24.2.49.31.74,0,0,0,0,0,.07l0,.06.14.33c0,.15.11.27.17.42a2.2,2.2,0,0,1,.09.21l.15.35s0,0,0,0a.47.47,0,0,0,0,.1l0,.08c.23.54.47,1.07.71,1.6,0,0,0,0,0,.07s0,0,0,0l0,0s0,0,0,.08a1.33,1.33,0,0,0,.06.12.61.61,0,0,0,0,.12s0,0,0,.08a.31.31,0,0,0,.06.13l.06.13.09.19.1.21s0,0,0,0a0,0,0,0,0,0,0l.08.17.07.17c.1.19.2.38.29.57l.57,1.14a.54.54,0,0,1,.07.13c.06.14.14.28.21.41a.41.41,0,0,1,0,.09l0,0c0,.05,0,.1.07.14l.09.17.1.17a1.62,1.62,0,0,0,.1.18s0,0,0,.07a.08.08,0,0,1,0,0s.05.09.08.14c.15.3.32.59.48.88,0,.08.09.15.14.23a.67.67,0,0,1,.06.12l.07.11a.41.41,0,0,0,.05.09,1.14,1.14,0,0,0,.1.19c.08.13.15.27.23.39l0,.09s0,0,0,0a.37.37,0,0,0,0,.11l0,0,.25.43.09.15,0,0,0,.05a.41.41,0,0,1,.05.09.21.21,0,0,1,0,.06l.12.2c.06.1.12.21.19.31l.11.18.06.11,0,.07h0s0,0,0,0l0,0,0,.05a.71.71,0,0,1,.11.17.56.56,0,0,1,0,.08l0,0,.06.09.22.37c.07.09.12.19.19.29s.21.33.32.5l.15.23s0,0,0,0l.08.13c.09.13.17.26.26.38s.35.53.52.78l.06.1,0,0,0,.09.38.55.07.09.23.34.23.33h0l0,0,.07.1.17.23.06.08.22.3.07.11.45.6c.08.12.17.24.26.35s.23.32.35.47L90,141l.08.11,1.25,1.55.19.24,0,0,.1.12c.12.15.24.29.37.43l.49.6c.1.1.19.22.28.33l.14.15a.86.86,0,0,0,.13.14c.2.24.41.47.62.71l.29.34.06.06.11.12,2.89,3,0,0q2.64-3.71,5.6-7.15C103.76,140.6,104.85,139.39,106,138.2Z"/><path class="cls-1" d="M81,62.45l1.14,0c1.16.07,2.37.15,3.61.26l1,.08.76.07.87.1c.57.05,1.14.12,1.72.19.24,0,.48.06.71.09q1.48.18,3,.42c1.35.21,2.72.44,4.12.71.83.16,1.66.33,2.5.52l1.18.26,1.6.38c2.36.58,4.75,1.26,7.17,2.06l1.15.39c1.34.47,2.7,1,4,1.52l1.67.68.29.13c.59.25,1.2.51,1.78.79l.17.08c.64.29,1.27.59,1.91.9l0,0h0c.82.41,1.64.83,2.46,1.27L125,74c1.36.76,2.68,1.55,4,2.4.46.29.92.58,1.36.88,1,.66,1.95,1.33,2.91,2,.63.48,1.27,1,1.9,1.46V53.41c-.53-.48-1.08-.93-1.62-1.37-.36-.31-.72-.6-1.09-.88-.55-.44-1.1-.86-1.66-1.27l-1.11-.81-1.13-.78c-.38-.25-.75-.51-1.13-.75l-1.13-.73c-.53-.33-1-.65-1.57-1a77.78,77.78,0,0,0-11-5.35,89.37,89.37,0,0,0-8.58-2.9,102.45,102.45,0,0,0-13-2.74h0l-.28.33-.29.34a.15.15,0,0,1,0,.07l-.5.61-.1.14a1.58,1.58,0,0,0-.12.15l-.22.26-.18.23-.16.2c-.1.13-.2.27-.3.39l-.23.3-.14.18-.13.17-.14.19-.84,1.12c0,.09-.12.17-.18.26L87.44,41l-.38.55-.63.93c-.14.21-.27.42-.41.62l-.18.28c-.13.19-.25.39-.38.59l-.2.31c-.09.15-.18.3-.28.45-.27.43-.53.88-.8,1.32l-.09.14-.41.71-.29.51-.29.49-.69,1.26-.14.26s0,.09-.07.14a.75.75,0,0,1-.07.12c-.09.17-.18.34-.26.51a.83.83,0,0,0-.07.13l-.08.15s0,0,0,.08l0,.07c-.09.17-.19.34-.27.51l-.11.22-.1.21c-.16.32-.31.64-.47,1l-.13.27c-.1.2-.2.41-.29.62h0a.11.11,0,0,0,0,.06c-.15.32-.3.64-.44,1s-.25.55-.38.83l-.12.26c-.12.28-.24.56-.35.84s-.21.49-.31.74c-.17.4-.33.81-.49,1.22s-.26.66-.38,1l-.37,1c-.12.36-.25.71-.38,1.07s-.21.61-.31.93c1.11,0,2.3,0,3.56.1Z"/><path class="cls-1" d="M307.34,227a2.67,2.67,0,0,1-2.53,1.38c-2.07,0-3.35-1.67-3.34-4.37s1.25-4.33,3.35-4.33A2.57,2.57,0,0,1,307.2,221a3.59,3.59,0,0,1,.36.92l2.26-.5a4,4,0,0,0-.8-1.7,5,5,0,0,0-4.16-1.92,5.17,5.17,0,0,0-4.14,1.72,6.94,6.94,0,0,0-1.51,4.57,6.7,6.7,0,0,0,1.66,4.75,5.26,5.26,0,0,0,3.94,1.48,4.77,4.77,0,0,0,4.56-2.31,6.28,6.28,0,0,0,.62-1.67l-2.34-.4A3.2,3.2,0,0,1,307.34,227Z"/><path class="cls-1" d="M108.47,154.08c2.55.65,5.5,1.31,8.78,1.93,3.06.58,6.39,1.11,10,1.52,2.74.34,5.72.6,8.87.78l15-32.56L157.4,112c-.66.23-1.31.46-2,.7l-1.42.52-.68.26-1.1.42c-1,.38-2,.79-3,1.19l-.3.12c-.93.38-1.85.76-2.77,1.16l-.2.08-.54.23-.23.11-.4.17-.19.08-.13.06-.06,0-.06,0-.34.15-.05,0-.31.15-.32.13-.22.1-.06,0-.13.06-.11.05-.15.07h0l-.14.06a0,0,0,0,1,0,0l-.7.32-.46.22-1.12.53c-.65.3-1.27.6-1.9.92v0h0c-.81.4-1.62.81-2.41,1.23s-1.58.83-2.36,1.25l-2.06,1.16c-1.18.68-2.34,1.37-3.47,2.08a96.13,96.13,0,0,0-19,15.35c-.84.87-1.66,1.77-2.45,2.67l-.1.11a90.21,90.21,0,0,0-6.19,7.86l.24.08.1,0,.18.06h.06l.12,0a1.52,1.52,0,0,0,.2.06h0l.47.15.11,0,.15,0,.06,0,.12,0,0,0h.06l.22.07.62.18.11,0,.18.05.32.1.56.16.37.11h.06l.08,0,.71.2.15.05.3.08.31.08a.07.07,0,0,1,.06,0h.07l.4.11.43.11.36.09s0,0,.06,0l.2,0h.07l.4.1Z"/><path class="cls-1" d="M235.7,106.45c-.07.13-.14.26-.2.4-.42.82-.83,1.63-1.26,2.42-.21.41-.43.81-.65,1.21-.06.13-.14.26-.21.39l-.31.56-.11.21h0s0,0,0,0l-.45.81-.15.24-.34.61-.12.2c-.2.35-.4.69-.61,1a1,1,0,0,0-.08.14l-.27.43c-.08.15-.18.3-.26.45s-.27.42-.39.63l-.09.14a1.4,1.4,0,0,0-.1.16l-.3.48c-.13.2-.26.4-.38.6l-.46.71c-.05.09-.12.18-.18.27v0l-.66,1c0,.09-.1.16-.16.25l-.41.61a1.25,1.25,0,0,0-.08.12l-.66,1-.17.24-.23.31-.22.33-.09.11-.65.9s0,0,0,0l-.69.92c-.45.6-.92,1.21-1.39,1.81l-.7.89-.36.44c-.12.14-.24.28-.36.44l-.2.24-.38.45-.05.07c-.29.35-.58.69-.88,1l-.06.07-.1.12-.13.15-.05.06-.35.4-.52.58,0,0c-.09.11-.19.21-.28.31l-.08.09-.59.66-.57.6-.16.18,0,0c-.21.21-.4.42-.6.64l-.18.17-.15.16-.16.16-.4.41-.22.23,0,0-.59.59-.15.15-.38.38-.26.25h0c-.26.26-.54.51-.81.77l-.08.08a1.22,1.22,0,0,0-.17.15l-.29.28-.06,0-1,.94c-.49.44-1,.88-1.47,1.3l-.94.79-.44.37-.12.09-.14.12-.32.27-.55.44-.2.15-.48.39-.2.15-1,.78c-.14.1-.26.2-.4.29l-.53.41-.42.3-.76.55c-.13.1-.27.19-.39.29s-.28.19-.41.28-.52.36-.79.53l-.41.3-.42.26c-.27.19-.53.36-.8.53s-.26.19-.41.27l-.58.37h0l-.39.25-.16.1h0l-.16.1c-.39.23-.78.46-1.16.7s-.56.33-.83.49l-.13.08,0,0-.53.28h0a.77.77,0,0,1-.18.1l-.1.06-.28.16-.24.13-.39.22-.44.24-.07,0-.38.2-.09.05-.54.29-.33.17c-.41.21-.82.43-1.25.64-.09,0-.18.1-.28.14l-.47.23-.1,0h0l-.25.13-.4.19a.82.82,0,0,1-.19.09c-.18.09-.34.17-.52.24l-.45.22-.14.07a97.22,97.22,0,0,1-18.57,6.32,119.33,119.33,0,0,1-27.21,3c-4,0-7.77-.17-11.29-.46L129,162l-1.67-.19-.75-.08-.94-.12c-3.1-.39-6-.85-8.71-1.35l-1.11-.21-1-.19-2.75-.57-.44-.1-.22,0-.21-.05-.27,0-.26-.07-.51-.11-.94-.22-1.06-.26c1.24.89,2.51,1.73,3.8,2.55a84.77,84.77,0,0,0,9.12,5c1,.46,2,.92,3,1.33a84,84,0,0,0,30.38,6.56c.8,0,1.62,0,2.43,0a84.6,84.6,0,0,0,80.59-58.9c.5-1.55.94-3.11,1.34-4.69.12-.48.24-1,.35-1.46s.17-.73.26-1.09a1.77,1.77,0,0,0,0-.21c.07-.25.12-.51.17-.77,0-.07,0-.14.05-.2s0-.2,0-.29a2,2,0,0,0,.05-.24c0-.08,0-.17.05-.25.1-.5.19-1,.28-1.47,0,0,0-.06,0-.09s0-.25.07-.38l0-.17a1.55,1.55,0,0,1,0-.21h0c0-.15.05-.28.06-.41v-.05c0-.1,0-.2,0-.3a.36.36,0,0,1,0-.11c0-.22.07-.43.1-.65a1.46,1.46,0,0,1,0-.22l.06-.43c0-.28.08-.56.11-.84s.08-.61.11-.91.07-.55.1-.83c0-.12,0-.26.05-.39a.38.38,0,0,1,0-.1V98c0-.17,0-.33.05-.49l0-.26a1.64,1.64,0,0,1,0-.22s0-.08,0-.12c0-.2,0-.4,0-.6,0,0,0-.1,0-.16,0-.24,0-.47,0-.7V95.4c0-.27.05-.55.06-.82s0-.59.05-.89q-1.23,3.23-2.58,6.3C237.76,102.19,236.75,104.35,235.7,106.45Z"/><path class="cls-2" d="M304.62,214.91a9.18,9.18,0,1,0,0,18.35,9.31,9.31,0,0,0,6.49-2.67,9.19,9.19,0,0,0-6.47-15.68ZM309.37,228a4.77,4.77,0,0,1-4.56,2.31,5.26,5.26,0,0,1-3.94-1.48,6.7,6.7,0,0,1-1.66-4.75,6.94,6.94,0,0,1,1.51-4.57,5.17,5.17,0,0,1,4.14-1.72,5,5,0,0,1,4.16,1.92,4,4,0,0,1,.8,1.7l-2.26.5a3.59,3.59,0,0,0-.36-.92,2.57,2.57,0,0,0-2.38-1.29c-2.1,0-3.35,1.61-3.35,4.33s1.27,4.37,3.34,4.37a2.67,2.67,0,0,0,2.53-1.38,3.2,3.2,0,0,0,.31-1.09l2.34.4A6.28,6.28,0,0,1,309.37,228Z"/><path class="cls-2" d="M25.89,213.35a21.93,21.93,0,0,0-4.18-1.9c-1.53-.52-3.06-1-4.58-1.39a31.1,31.1,0,0,1-4.19-1.42,7.47,7.47,0,0,1-3.09-2.35,6.13,6.13,0,0,1-1.19-3.84,5.33,5.33,0,0,1,1.55-3.94A6.06,6.06,0,0,1,14.69,197a6.3,6.3,0,0,1,3.6,1,6.81,6.81,0,0,1,2.21,2.37c.49.93,1,1.85,1.41,2.78a8.06,8.06,0,0,0,1.7,2.37,3.66,3.66,0,0,0,2.64,1q3.41,0,3.41-3.3.06-3.53-4.18-6.37a18.62,18.62,0,0,0-10.63-2.87q-6.49,0-10.32,3.08a9.85,9.85,0,0,0-3.82,8,11.25,11.25,0,0,0,1.2,5.42A8.52,8.52,0,0,0,5,213.78a21,21,0,0,0,4.21,1.9c1.53.5,3.06.93,4.58,1.31A29.94,29.94,0,0,1,18,218.32a7.65,7.65,0,0,1,3.09,2.27,5.86,5.86,0,0,1,1.19,3.79,5,5,0,0,1-1.68,3.92,6.65,6.65,0,0,1-4.51,1.46,8.45,8.45,0,0,1-4.26-1,7.6,7.6,0,0,1-2.66-2.43q-.91-1.41-1.68-2.85A10,10,0,0,0,5.68,221a3.68,3.68,0,0,0-2.48-1.07,3.09,3.09,0,0,0-2.4.88,3.42,3.42,0,0,0-.8,2.37c0,2.38,1.44,4.58,4.34,6.59s6.7,3,11.43,3A17.31,17.31,0,0,0,26,229.87a9.21,9.21,0,0,0,4.16-7.93A10.68,10.68,0,0,0,29,216.66,8.47,8.47,0,0,0,25.89,213.35Z"/><path class="cls-2" d="M61.32,230.18a2.22,2.22,0,0,0-.87-.35,1.35,1.35,0,0,1-.88-.8,4.53,4.53,0,0,1-.4-2.16l0-19.51c0-.78-.67-1.1-2-1l-6.83,1c-.71.11-1.07.48-1.07,1.12v.16c0,.29.36.81,1.07,1.58a3.57,3.57,0,0,1,1.06,2.48v10.82a7.26,7.26,0,0,1-1.31,4.5,4,4,0,0,1-3.28,1.73q-4.42,0-4.42-7.25l.18-15.2c0-.81-.73-1.14-2.19-1l-6.71,1c-.75.1-1.12.47-1.13,1.11v.16c0,.29.35.81,1,1.58a3.63,3.63,0,0,1,1,2.48v9c0,3.52.93,6.24,2.79,8.18a9.47,9.47,0,0,0,7.11,2.92q5.49,0,7.74-3.67a3.22,3.22,0,0,0,1.25,2.69,6.32,6.32,0,0,0,3.49.78q4.74,0,4.74-1.54A1,1,0,0,0,61.32,230.18Z"/><path class="cls-2" d="M84,219.38A14.45,14.45,0,0,0,81.17,218q-1.58-.56-3.12-1a25.6,25.6,0,0,1-2.82-1,5,5,0,0,1-2.08-1.54,4,4,0,0,1-.8-2.51,3.59,3.59,0,0,1,1-2.53,3.29,3.29,0,0,1,2.51-1,3.19,3.19,0,0,1,2.51,1.1,6.21,6.21,0,0,1,1.33,2.4,6.48,6.48,0,0,0,1.27,2.4,3,3,0,0,0,2.4,1.09,3.11,3.11,0,0,0,2.16-.79,2.56,2.56,0,0,0,.88-2q0-2.61-3.06-4.5a14.78,14.78,0,0,0-7.91-1.9,12.81,12.81,0,0,0-7.81,2.2,6.71,6.71,0,0,0-3,5.62,7,7,0,0,0,1.51,4.67,8.22,8.22,0,0,0,3.7,2.51c1.46.48,2.92.91,4.37,1.28a10.74,10.74,0,0,1,3.71,1.68,3.58,3.58,0,0,1,1.51,3,3.18,3.18,0,0,1-1.09,2.61,4.23,4.23,0,0,1-2.8.91,3.83,3.83,0,0,1-2.85-1.1,5.68,5.68,0,0,1-1.49-2.43,6.56,6.56,0,0,0-1.36-2.42,3.17,3.17,0,0,0-2.5-1.1,3.44,3.44,0,0,0-2.32.75,2.68,2.68,0,0,0-.89,2.18q0,2.56,3.2,4.38a16.58,16.58,0,0,0,8.21,1.82,14.33,14.33,0,0,0,8.31-2.15,6.44,6.44,0,0,0,3.1-5.46,7.36,7.36,0,0,0-.79-3.55A6.1,6.1,0,0,0,84,219.38Z"/><path class="cls-2" d="M107.71,224.23a1.14,1.14,0,0,0-1.2.56,3.47,3.47,0,0,1-3.63,2.4,2.42,2.42,0,0,1-1.94-.94,3.74,3.74,0,0,1-.77-2.48V209.86h6.13a1,1,0,0,0,.75-.29,1,1,0,0,0,.32-.77v-.91a1.11,1.11,0,0,0-.32-.8,1,1,0,0,0-.74-.32h-6.13l0-5.28c0-.85-.39-1.28-1.17-1.28H97.9c-.64,0-1.05.42-1.23,1.27a6.68,6.68,0,0,1-2,3.84,5.18,5.18,0,0,1-3.7,1.44H89.68c-.71,0-1.06.38-1.06,1.12v.91a1,1,0,0,0,1.07,1.07h2.51l0,13.81c0,3,.71,5.27,2.15,6.85a7.61,7.61,0,0,0,5.89,2.38,7.88,7.88,0,0,0,6-2.34,7.67,7.67,0,0,0,2.22-5.44A.81.81,0,0,0,107.71,224.23Z"/><path class="cls-2" d="M133.06,223.86a1,1,0,0,0-1.18.43,6.22,6.22,0,0,1-2.42,2.21,7.67,7.67,0,0,1-3.66.87,7.32,7.32,0,0,1-7-4.64l11.84-5.38a3.61,3.61,0,0,0,2.35-3.51,6.86,6.86,0,0,0-2.6-5.28q-2.61-2.3-7.46-2.3A12.79,12.79,0,0,0,110,219.36a13.51,13.51,0,0,0,3.61,9.81,12.38,12.38,0,0,0,9.28,3.74,10.9,10.9,0,0,0,7.62-2.63q2.94-2.64,3.21-5.41A.88.88,0,0,0,133.06,223.86Zm-15.67-8.17a9.66,9.66,0,0,1,1.24-5.09,3.73,3.73,0,0,1,3.3-2,3.5,3.5,0,0,1,3.09,2,7.31,7.31,0,0,1,1.17,3.76,2.53,2.53,0,0,1-1.39,2.5l-6.88,3.46A17.85,17.85,0,0,1,117.39,215.69Z"/><path class="cls-2" d="M180.66,227.27l-.63-9.49c-.28-4.05-1.32-7-3.14-8.77a9.2,9.2,0,0,0-6.76-2.7,9.4,9.4,0,0,0-4.88,1.27A8,8,0,0,0,162,211.1q-2.78-4.8-8.84-4.81a8.25,8.25,0,0,0-7.37,3.83v-2.5a1.41,1.41,0,0,0-.48-1.21c-.32-.23-.78-.2-1.39.08l-6.72,3.09c-.74.35-1.12.73-1.12,1.12v.21a1.36,1.36,0,0,0,.67,1,11,11,0,0,1,1.3,1.2,2.4,2.4,0,0,1,.64,1.71v12.42a3.4,3.4,0,0,1-1.15,2.4c-.77.74-1.15,1.29-1.15,1.65v.21c0,.61.41.91,1.22.91h9.92c.82,0,1.23-.3,1.23-.91v-.21c0-.35-.38-.91-1.15-1.65a3.35,3.35,0,0,1-1.14-2.4v-12a6.94,6.94,0,0,1,1.23-4.26,4,4,0,0,1,3.36-1.65,3.86,3.86,0,0,1,3.36,2,10.34,10.34,0,0,1,1.27,5.6v10.4a3.6,3.6,0,0,1-1,2.39,3.27,3.27,0,0,0-1,1.66v.21c0,.6.4.91,1.22.91h9.22c.79,0,1.18-.3,1.18-.91v-.21a3.24,3.24,0,0,0-.93-1.65,3.71,3.71,0,0,1-.93-2.4v-9.87a13.56,13.56,0,0,0-.21-2.56,7,7,0,0,1,1.28-4,3.8,3.8,0,0,1,6.35.35q1.11,1.89,1.32,6.32l.52,9.76a3.12,3.12,0,0,1-.88,2.39,3.24,3.24,0,0,0-1,1.66v.21c0,.6.41.91,1.23.91h9.22c.78,0,1.17-.3,1.17-.91v-.21a3.32,3.32,0,0,0-.9-1.71A4.38,4.38,0,0,1,180.66,227.27Z"/><path class="cls-2" d="M228,218.5a1.4,1.4,0,0,0-1.66.61c-2.52,4.48-5.89,6.71-10.08,6.71q-5.07,0-8.87-5t-3.8-12.59A12.3,12.3,0,0,1,206,200.4a7.17,7.17,0,0,1,5.76-3,6.49,6.49,0,0,1,3.68,1.07,8.91,8.91,0,0,1,2.58,2.61c.66,1,1.29,2.06,1.89,3.07a10.46,10.46,0,0,0,2.13,2.59,4.19,4.19,0,0,0,2.82,1.07,3.85,3.85,0,0,0,2.78-1,3.47,3.47,0,0,0,1-2.59q0-3.84-4.52-7a18.33,18.33,0,0,0-10.66-3.13,16.58,16.58,0,0,0-12.77,5.32q-4.94,5.33-5,13.58A20.41,20.41,0,0,0,201.1,227,16.51,16.51,0,0,0,213.86,233q6.78,0,10.67-3.77a14.23,14.23,0,0,0,4.38-9.27A1.23,1.23,0,0,0,228,218.5Z"/><path class="cls-2" d="M234.18,201.82a5.53,5.53,0,0,0,3.81,1.31,5.31,5.31,0,0,0,3.76-1.3,4.41,4.41,0,0,0,1.42-3.38,4.36,4.36,0,0,0-1.41-3.34A5.31,5.31,0,0,0,238,193.8a5.52,5.52,0,0,0-3.81,1.3,4.25,4.25,0,0,0-1.47,3.33A4.35,4.35,0,0,0,234.18,201.82Z"/><path class="cls-2" d="M241.91,227.34l0-19.67a1.22,1.22,0,0,0-.58-1.15,1.79,1.79,0,0,0-1.6.08l-6.67,3.3c-.75.39-1.12.76-1.12,1.11v.16c0,.29.34.82,1,1.6a3.82,3.82,0,0,1,1,2.51v12.05a3.53,3.53,0,0,1-1,2.4,3.2,3.2,0,0,0-1,1.65v.21c0,.61.39.91,1.17.91h9.81c.82,0,1.22-.3,1.23-.9v-.22c0-.35-.38-.9-1.12-1.65A3.36,3.36,0,0,1,241.91,227.34Z"/><path class="cls-2" d="M265.13,224.4a1.15,1.15,0,0,0-1.2.56,3.47,3.47,0,0,1-3.63,2.4,2.39,2.39,0,0,1-1.94-.94,3.74,3.74,0,0,1-.77-2.48V210h6.13a1.05,1.05,0,0,0,.75-.3,1,1,0,0,0,.32-.77v-.91a1.09,1.09,0,0,0-.32-.8,1,1,0,0,0-.74-.32h-6.13l-.05-5.28c0-.85-.39-1.28-1.17-1.28h-1.07c-.64,0-1,.42-1.23,1.28a6.65,6.65,0,0,1-2,3.83,5.18,5.18,0,0,1-3.7,1.44H247.1c-.71,0-1.06.37-1.06,1.11V209A.94.94,0,0,0,247.1,210h2.51l0,13.81c0,3,.71,5.27,2.15,6.85a7.57,7.57,0,0,0,5.89,2.38,7.88,7.88,0,0,0,6-2.34,7.65,7.65,0,0,0,2.22-5.44A.81.81,0,0,0,265.13,224.4Z"/><path class="cls-2" d="M294.28,207h-6.5c-.75,0-1.12.3-1.12.91v.21c0,.32.3.7.9,1.15A6.54,6.54,0,0,1,289,210.6c.36.46.35,1.29,0,2.5l-5.77,13.7L277,212.34a4.16,4.16,0,0,1-.31-2,3.44,3.44,0,0,1,.64-1.15,1.86,1.86,0,0,0,.48-1.09v-.21c0-.61-.34-.91-1-.91h-10c-.75,0-1.12.28-1.12.85v.27a3.16,3.16,0,0,0,1.14,1.84,8.85,8.85,0,0,1,1.73,2.32L279.17,234q-3,7.45-5.5,7.46a1.67,1.67,0,0,1-1.47-1,8.08,8.08,0,0,1-.82-2.21,5,5,0,0,0-1.12-2.22,2.93,2.93,0,0,0-2.34-1,3.11,3.11,0,0,0-2.35.88,3.19,3.19,0,0,0-.85,2.32,5,5,0,0,0,2.2,3.95,8.79,8.79,0,0,0,5.63,1.76,6.81,6.81,0,0,0,3-.69,9.21,9.21,0,0,0,2.4-1.6,12.8,12.8,0,0,0,1.95-2.47c.66-1.05,1.15-1.89,1.47-2.53s.71-1.48,1.18-2.51l10.09-21.9a9.48,9.48,0,0,1,1.63-2.29,3.27,3.27,0,0,0,1.1-1.86v-.27C295.35,207.26,295,207,294.28,207Z"/><path class="cls-3" d="M218.62,96.48l-.62.14h.08Z"/><path class="cls-3" d="M217.12,96.8a.5.5,0,0,1-.13,0l.13,0Z"/><path class="cls-3" d="M221.42,34.62l-.23-.26.46.54Z"/><path class="cls-3" d="M222.81,36.3h0s0,0,0,0S222.81,36.31,222.81,36.3Z"/><path class="cls-3" d="M236.44,60.5c-.16-.42-.31-.85-.48-1.27.2.51.38,1,.57,1.54Z"/><path class="cls-3" d="M237.69,64.26c-.11-.37-.23-.75-.36-1.13a1.17,1.17,0,0,0-.06-.2c.14.46.29.94.44,1.41Z"/><path class="cls-3" d="M235.1,57c-.15-.34-.29-.68-.43-1l.46,1.09A.19.19,0,0,1,235.1,57Z"/><path class="cls-3" d="M239.91,73.19s0,0,0,0,0,.13,0,.2A1.13,1.13,0,0,1,239.91,73.19Z"/><path class="cls-3" d="M233.41,53.21c-.11-.23-.23-.46-.33-.69s-.11-.23-.18-.35c.22.42.42.85.62,1.28Z"/><path class="cls-2" d="M246,84.66A89.26,89.26,0,0,0,93.78,26.13,90.18,90.18,0,0,0,80.28,43.4a87.48,87.48,0,0,0-8.22,18,89.52,89.52,0,0,0-4.3,23.27c-.07,1.52-.11,3-.11,4.58a89.25,89.25,0,0,0,176.83,17.21,90.29,90.29,0,0,0,1.65-17.21C246.13,87.71,246.09,86.18,246,84.66Zm-6.11-11.47a1.13,1.13,0,0,0,0,.18c0-.07,0-.13,0-.2S239.9,73.18,239.91,73.19Zm-2.58-10.06c.13.38.25.76.36,1.13l0,.08c-.15-.47-.3-1-.44-1.41A1.17,1.17,0,0,1,237.33,63.13Zm-.89-2.63.09.27c-.19-.51-.37-1-.57-1.54C236.13,59.65,236.28,60.08,236.44,60.5ZM235.1,57a.19.19,0,0,0,0,.08L234.67,56C234.81,56.35,235,56.69,235.1,57ZM234.23,55l.14.36a3.92,3.92,0,0,0-.16-.36Zm-1.15-2.46c.1.23.22.46.33.69l.11.24c-.2-.43-.4-.86-.62-1.28C233,52.29,233,52.4,233.08,52.52ZM222.81,36.3s0,0,0,0,0,0,0,0Zm-1.39-1.68.23.28-.46-.54Zm-20.54,65.5.7-.16V99.9c2.1-.44,4.16-.86,6.18-1.24l1.35-.26.25-.05.87-.17.67-.13.27,0,1.2-.23,1.18-.23.37-.08c.3,0,.59-.12.89-.18h.08a.53.53,0,0,0,.12,0l.19,0,.23,0,.64-.13.21,0,.15,0,.41-.08h0l.13,0a.5.5,0,0,0,.13,0l.38-.07.5-.11.62-.14.14,0,.28-.07.93-.2h0l1.5-.35,1.56-.38.43-.11.33-.08.78-.2h0v0h0l2.64-.67q5.53-1.42,10.43-2.88c-.09.26-.2.52-.29.77s-.11.28-.17.42l-.15.43c-.07.14-.12.28-.18.42s-.13.33-.19.5-.18.43-.26.65-.06.13-.08.19h0c-.11.29-.22.57-.34.84l-.11.27,0,.07a1.34,1.34,0,0,0-.07.18c0,.06-.05.12-.07.17l-.2.48c-.15.33-.28.65-.42,1l-.06.14-.23.51c-.08.2-.17.4-.26.6s-.28.64-.43,1a2,2,0,0,0-.12.27l-.1.21-.39.86-.5,1.05-.12.22a2.09,2.09,0,0,1-.14.3c-.12.27-.25.53-.38.79l-.38.77c-.12.25-.25.49-.37.73l-.12.23,0,.07c0,.08-.08.16-.13.25l-.34.66-.06.1s0,0,0,0l-.11.19a1.82,1.82,0,0,1-.16.31.19.19,0,0,1,0,.09.37.37,0,0,1-.05.11s0,0,0,0a0,0,0,0,1,0,0l-.11.19c-.1.2-.19.38-.3.57l-.13.24a.43.43,0,0,1,0,.07.54.54,0,0,0,0,.11h0l0,.1c-.16.3-.33.59-.5.89s-.34.63-.53.94c0,0,0,0,0,0l-.43.75-.44.75c-.08.14-.17.28-.25.43s-.14.23-.21.34l-.14.22-.12.21-.4.65-.27.43a1.93,1.93,0,0,0-.13.21h0l0,0c-.25.41-.51.81-.77,1.21-.08.13-.17.28-.26.41-.4.61-.8,1.22-1.21,1.82,0,0,0,0,0,0-.14.2-.28.41-.44.62a1.88,1.88,0,0,1-.16.23c-.09.14-.19.27-.28.4l-.65.91-.31.45-.35.46-.58.78-.2.27-.15.2-.08.1a.13.13,0,0,0,0,0l-.47.6-.07.09a92.87,92.87,0,0,1-10.57,11.49,85.34,85.34,0,0,1-12.82,9.75c-.3.2-.61.38-.91.56a1.69,1.69,0,0,1-.29.17c-.45.28-.89.53-1.35.79-2.25,1.3-4.55,2.5-6.93,3.6a93.82,93.82,0,0,1-9.5,3.73l20.21-46.83Zm-28,54.67a115.1,115.1,0,0,1-32.46,3.69l15.07-32.73,2-4.32,5.16-11.2.87-.28,1.63-.53,1-.32,1.64-.51.6-.19L170,108l.14,0h0l2.92-.85.38-.11.44-.12c.46-.14.91-.26,1.37-.38l1.25-.35.25-.07L177,106c.91-.26,1.84-.5,2.77-.75l.29-.07.56-.15,1.54-.4.39-.1c.12,0,.24-.07.37-.09l2.11-.54,2.19-.55.61-.14,2.18-.53,3.22-.76.73-.17,2.08-.48-2.08,4.83-.17.39ZM139.35,33.42a2.92,2.92,0,0,1,.12-.83,2.82,2.82,0,0,1,.19-.51,2.73,2.73,0,0,1,.27-.47,1.73,1.73,0,0,1,.17-.21,2.65,2.65,0,0,1,.41-.41,3.05,3.05,0,0,1,1.17-.61l.18,0,.09,0,.24,0h52.42l.23,0h0a3.26,3.26,0,0,1,1.49.76l.18.18a3.15,3.15,0,0,1,.86,2.15v63.2l-3.23.74-.24,0-.2,0-2.81.67-.61.14-3,.72h0c-.54.12-1.07.26-1.6.39l-1,.24-1,.24-.84.21-2.1.54c-.31.07-.62.15-.92.24l-2,.51-.67.19c-.49.12-1,.26-1.46.39l-.2,0-.77.21-.33.1-.17,0c-1,.27-2,.54-3,.83l-.48.14-.51.15c-.82.23-1.65.48-2.48.73l-.17,0-2.12.65-.24.08c-.72.22-1.46.45-2.19.69s-1.6.51-2.4.78l-.31.1-2.12.72-.84.28c-1.39.49-2.77,1-4.14,1.48l-.34.13c-.67.26-1.34.5-2,.76l-.65.24-1.62.64-.74.29-1.34.55-.41.17c-.19.07-.35.16-.53.23-.55.22-1.08.45-1.62.68l-1.34.58-.26.12-1.46.65-1.18.54-.54.25ZM77,61.39c.13-.36.26-.71.38-1.07l.37-1c.12-.32.25-.65.38-1s.32-.82.49-1.22c.1-.25.2-.49.31-.74s.23-.56.35-.84l.12-.26c.13-.28.24-.55.38-.83s.29-.64.44-1a.11.11,0,0,1,0-.06h0c.09-.21.19-.42.29-.62l.13-.27c.16-.31.31-.63.47-1l.1-.21.11-.22c.08-.17.18-.34.27-.51l0-.07s0,0,0-.08l.08-.15a.83.83,0,0,1,.07-.13c.08-.17.17-.34.26-.51a.75.75,0,0,0,.07-.12s0-.1.07-.14l.14-.26.69-1.26.29-.49.29-.51.41-.71.09-.14c.27-.44.53-.89.8-1.32.1-.15.19-.3.28-.45l.2-.31c.13-.2.25-.4.38-.59l.18-.28c.14-.2.27-.41.41-.62l.63-.93.38-.55.86-1.21c.06-.09.13-.17.18-.26l.84-1.12.14-.19.13-.17.14-.18.23-.3c.1-.12.2-.26.3-.39l.16-.2.18-.23.22-.26a1.58,1.58,0,0,1,.12-.15l.1-.14.5-.61a.15.15,0,0,0,0-.07l.29-.34.28-.33h0a102.45,102.45,0,0,1,13,2.74,89.37,89.37,0,0,1,8.58,2.9,77.78,77.78,0,0,1,11,5.35c.53.31,1,.63,1.57,1l1.13.73c.38.24.75.5,1.13.75l1.13.78,1.11.81c.56.41,1.11.83,1.66,1.27.37.28.73.57,1.09.88.54.44,1.09.89,1.62,1.37V80.79c-.63-.5-1.27-1-1.9-1.46-1-.71-1.93-1.38-2.91-2-.44-.3-.9-.59-1.36-.88-1.33-.85-2.65-1.64-4-2.4l-1.08-.59c-.82-.44-1.64-.86-2.46-1.27h0l0,0c-.64-.31-1.27-.61-1.91-.9l-.17-.08c-.58-.28-1.19-.54-1.78-.79l-.29-.13-1.67-.68c-1.35-.54-2.71-1-4-1.52l-1.15-.39c-2.42-.8-4.81-1.48-7.17-2.06l-1.6-.38-1.18-.26c-.84-.19-1.67-.36-2.5-.52-1.4-.27-2.77-.5-4.12-.71q-1.54-.24-3-.42c-.23,0-.47-.07-.71-.09-.58-.07-1.15-.14-1.72-.19l-.87-.1-.76-.07-1-.08c-1.24-.11-2.45-.19-3.61-.26l-1.14,0-.72,0c-1.26-.06-2.45-.09-3.56-.1C76.82,62,76.93,61.7,77,61.39ZM72.51,94.32c0-.34,0-.68-.05-1l-.06-1.46v0c0-.42,0-.84,0-1.26s0-.87,0-1.31c0-1.53,0-3.06.13-4.58.08-1.78.23-3.56.44-5.32q.45-3.84,1.23-7.59.42-2,.93-4c.06-.22.11-.44.17-.65s.12-.44.17-.66h0c1.47,0,3.09,0,4.84.13,2.94.12,6.25.36,9.8.81a92,92,0,0,1,31,9.22q2.3,1.19,4.54,2.56l.21.13.68.42.12.08a73.13,73.13,0,0,1,6.72,4.83c.63.51,1.25,1,1.87,1.58v27.39l-.31-.24a3.92,3.92,0,0,0-.32-.25l-.62-.48s0,0,0,0l-.16-.12-.31-.23-.46-.35-.29-.2s0,0,0,0l-.72-.51a0,0,0,0,0,0,0l-.38-.27-.26-.18-.15-.1-.06,0s0,0,0,0l-.2-.12-.22-.16-.66-.44-.42-.28-.65-.41a1,1,0,0,0-.17-.1c-.2-.14-.41-.27-.63-.4l-.08-.06-.47-.28-.25-.15-.19-.12-.73-.43-.16-.08a1.19,1.19,0,0,0-.15-.09l-.77-.45-.34-.18-.68-.37,0,0-.19-.12-.28-.14-.2-.11,0,0-1.08-.56-1-.49-.43-.21-.22-.11-.15-.07,0,0-.75-.35-.75-.34c-.24-.12-.49-.22-.74-.33l-1.11-.49-.16-.07a.72.72,0,0,1-.2-.09h0s0,0,0,0l-.75-.3-.22-.09-.52-.21-.23-.09,0,0-.08,0-.69-.27h0l-.07,0h0l0,0,0,0-.68-.25h0l-.06,0-1.54-.55-.38-.13-.38-.13-.45-.15-.44-.15a.05.05,0,0,1,0,0l-.66-.2s0,0,0,0l-.6-.2h0l0,0-.13,0-.9-.27-.35-.1-.89-.26-.24-.07-.06,0-.6-.16-.12,0,0,0-.59-.15-.15,0-.31-.07-.58-.15-.08,0-.14,0c-.39-.1-.78-.2-1.16-.28l-.27-.07L101,97.89l-.15,0c-1.18-.26-2.34-.49-3.48-.71-3.45-.64-6.74-1.09-9.81-1.38l-1.93-.18-.93-.08-1.82-.12-1.65-.09-.93,0-.29,0h-.37l-1,0-.79,0c-1.8,0-3.42,0-4.85,0h-.42C72.54,94.86,72.53,94.58,72.51,94.32ZM97.06,149l-2.89-3-.11-.12-.06-.06-.29-.34c-.21-.24-.42-.47-.62-.71a.86.86,0,0,1-.13-.14l-.14-.15c-.09-.11-.18-.23-.28-.33l-.49-.6c-.13-.14-.25-.28-.37-.43l-.1-.12,0,0-.19-.24-1.25-1.55L90,141l-.46-.59c-.12-.15-.24-.31-.35-.47s-.18-.23-.26-.35l-.45-.6-.07-.11-.22-.3-.06-.08-.17-.23-.07-.1,0,0h0l-.23-.33-.23-.34-.07-.09-.38-.55,0-.09,0,0-.06-.1c-.17-.25-.35-.51-.52-.78s-.17-.25-.26-.38l-.08-.13s0,0,0,0l-.15-.23c-.11-.17-.22-.33-.32-.5s-.12-.2-.19-.29l-.22-.37-.06-.09,0,0a.56.56,0,0,0,0-.08.71.71,0,0,0-.11-.17l0-.05,0,0s0,0,0,0h0l0-.07-.06-.11-.11-.18c-.07-.1-.13-.21-.19-.31l-.12-.2a.21.21,0,0,0,0-.06.41.41,0,0,0-.05-.09l0-.05,0,0-.09-.15-.25-.43,0,0a.37.37,0,0,1,0-.11s0,0,0,0l0-.09c-.08-.12-.15-.26-.23-.39a1.14,1.14,0,0,1-.1-.19.41.41,0,0,1-.05-.09l-.07-.11a.67.67,0,0,0-.06-.12c0-.08-.1-.15-.14-.23-.16-.29-.33-.58-.48-.88,0-.05,0-.1-.08-.14a.08.08,0,0,0,0,0s0,0,0-.07a1.62,1.62,0,0,1-.1-.18l-.1-.17-.09-.17s-.05-.09-.07-.14l0,0a.41.41,0,0,0,0-.09c-.07-.13-.15-.27-.21-.41a.54.54,0,0,0-.07-.13l-.57-1.14c-.09-.19-.19-.38-.29-.57l-.07-.17-.08-.17a0,0,0,0,1,0,0s0,0,0,0l-.1-.21-.09-.19-.06-.13a.31.31,0,0,1-.06-.13s0,0,0-.08a.61.61,0,0,1,0-.12,1.33,1.33,0,0,1-.06-.12s0,0,0-.08l0,0s0,0,0,0,0,0,0-.07c-.24-.53-.48-1.06-.71-1.6l0-.08a.47.47,0,0,1,0-.1s0,0,0,0l-.15-.35a2.2,2.2,0,0,0-.09-.21c-.06-.15-.12-.27-.17-.42l-.14-.33,0-.06s0,0,0-.07c-.11-.25-.21-.5-.31-.74s-.12-.33-.18-.48a3.24,3.24,0,0,0-.13-.33.88.88,0,0,1,0-.15l0-.09s0-.08-.05-.13-.08-.21-.13-.32a.19.19,0,0,0,0-.07s0,0,0-.08,0,0,0,0v0a.73.73,0,0,1,0-.12l-.09-.23a1.92,1.92,0,0,0-.11-.31l0-.1a.11.11,0,0,1,0-.06s0,0,0,0l0-.06a2,2,0,0,1-.08-.22c0-.05,0-.1,0-.14a.47.47,0,0,1,0-.09s0-.1,0-.14,0,0,0-.07-.07-.2-.1-.3-.07-.21-.1-.32a1.31,1.31,0,0,1-.08-.21c0-.15-.1-.31-.16-.48l-.22-.69c0-.16-.11-.33-.17-.49-.17-.55-.34-1.11-.5-1.67-.06-.22-.13-.44-.19-.67s-.19-.68-.28-1a.14.14,0,0,1,0-.06l-.15-.54c0-.18-.09-.36-.14-.55s-.09-.36-.13-.54a.58.58,0,0,1,0-.19c-.09-.32-.17-.65-.24-1s-.09-.37-.12-.55-.07-.29-.1-.44-.12-.54-.17-.81-.07-.31-.1-.46-.11-.58-.17-.86-.1-.5-.14-.75c0,0,0,0,0-.07l0-.23c-.09-.48-.17-1-.26-1.44a2.19,2.19,0,0,0,0-.27c0-.21-.07-.43-.1-.64a.25.25,0,0,0,0-.08c0-.18,0-.37-.08-.56l-.09-.65c0-.18,0-.36-.07-.53L73,99.76c0-.15,0-.3,0-.45h1.2c1.43,0,3,0,4.75.08l1,0,.34,0c.83,0,1.69.08,2.58.13l1.13.08c1,.07,2.11.17,3.2.27a.65.65,0,0,0,.19,0,98.27,98.27,0,0,1,27.09,6.51,74.29,74.29,0,0,1,16,8.87l.11.07c1,.75,2,1.53,3,2.35-.51.27-1,.54-1.51.82s-1,.54-1.5.82c-1,.6-2.09,1.19-3.11,1.81-.34.19-.68.41-1,.61l-1.6,1-.79.5c-.7.45-1.39.91-2.06,1.37-.52.36-1,.71-1.55,1.08a100.31,100.31,0,0,0-8.32,6.54q-3.22,2.84-6.17,5.91c-1.14,1.19-2.23,2.4-3.3,3.63q-3,3.43-5.6,7.15Zm10.75,5h0l-.2,0s0,0-.06,0l-.36-.09-.43-.11-.4-.11h-.07a.07.07,0,0,0-.06,0l-.31-.08-.3-.08-.15-.05-.71-.2-.08,0h-.06l-.37-.11-.56-.16-.32-.1-.18-.05-.11,0-.62-.18-.22-.07h-.06l0,0-.12,0-.06,0-.15,0-.11,0-.47-.15h0a1.52,1.52,0,0,1-.2-.06l-.12,0h-.06l-.18-.06-.1,0-.24-.08a90.21,90.21,0,0,1,6.19-7.86l.1-.11c.79-.9,1.61-1.8,2.45-2.67a96.13,96.13,0,0,1,19-15.35c1.13-.71,2.29-1.4,3.47-2.08l2.06-1.16c.78-.42,1.56-.85,2.36-1.25s1.6-.83,2.41-1.23h0v0c.63-.32,1.25-.62,1.9-.92l1.12-.53.46-.22.7-.32a0,0,0,0,0,0,0l.14-.06h0l.15-.07.11-.05.13-.06.06,0,.22-.1.32-.13.31-.15.05,0,.34-.15.06,0,.06,0,.13-.06.19-.08.4-.17.23-.11.54-.23.2-.08c.92-.4,1.84-.78,2.77-1.16l.3-.12c1-.4,2-.81,3-1.19l1.1-.42.68-.26,1.42-.52c.64-.24,1.29-.47,2-.7l-6.32,13.72-15,32.56c-3.15-.18-6.13-.44-8.87-.78-3.57-.41-6.9-.94-10-1.52-3.28-.62-6.23-1.28-8.78-1.93l-.21-.05-.4-.1ZM241.26,94.58c0,.27,0,.55-.06.82v.08c0,.23,0,.46,0,.7,0,.06,0,.11,0,.16,0,.2,0,.4,0,.6,0,0,0,.07,0,.12a1.64,1.64,0,0,0,0,.22l0,.26c0,.16,0,.32-.05.49v.07a.38.38,0,0,0,0,.1c0,.13,0,.27-.05.39,0,.28-.06.55-.1.83s-.07.61-.11.91-.08.56-.11.84l-.06.43a1.46,1.46,0,0,0,0,.22c0,.22-.07.43-.1.65a.36.36,0,0,0,0,.11c0,.1,0,.2,0,.3v.05c0,.13,0,.26-.06.41h0a1.55,1.55,0,0,0,0,.21l0,.17c0,.13-.05.26-.07.38s0,.06,0,.09c-.09.49-.18,1-.28,1.47,0,.08,0,.17-.05.25a2,2,0,0,1-.05.24c0,.09,0,.19,0,.29s0,.13-.05.2c0,.26-.1.52-.17.77a1.77,1.77,0,0,1,0,.21c-.09.36-.17.72-.26,1.09s-.23,1-.35,1.46c-.4,1.58-.84,3.14-1.34,4.69a84.6,84.6,0,0,1-80.59,58.9c-.81,0-1.63,0-2.43,0a84,84,0,0,1-30.38-6.56c-1-.41-2-.87-3-1.33a84.77,84.77,0,0,1-9.12-5c-1.29-.82-2.56-1.66-3.8-2.55l1.06.26.94.22.51.11.26.07.27,0,.21.05.22,0,.44.1,2.75.57,1,.19,1.11.21c2.71.5,5.61,1,8.71,1.35l.94.12.75.08L129,162l3.1.28c3.52.29,7.3.46,11.29.46a119.33,119.33,0,0,0,27.21-3,97.22,97.22,0,0,0,18.57-6.32l.14-.07.45-.22c.18-.07.34-.15.52-.24a.82.82,0,0,0,.19-.09l.4-.19.25-.13h0l.1,0,.47-.23c.1,0,.19-.1.28-.14.43-.21.84-.43,1.25-.64l.33-.17.54-.29.09-.05.38-.2.07,0,.44-.24.39-.22.24-.13.28-.16.1-.06a.77.77,0,0,0,.18-.1h0l.53-.28,0,0,.13-.08c.27-.16.56-.32.83-.49s.77-.47,1.16-.7l.16-.1h0l.16-.1.39-.25h0l.58-.37c.15-.08.27-.18.41-.27s.53-.34.8-.53l.42-.26.41-.3c.27-.17.53-.35.79-.53s.26-.19.41-.28.26-.19.39-.29l.76-.55.42-.3.53-.41c.14-.09.26-.19.4-.29l1-.78.2-.15.48-.39.2-.15.55-.44.32-.27.14-.12.12-.09.44-.37.94-.79c.5-.42,1-.86,1.47-1.3l1-.94.06,0,.29-.28a1.22,1.22,0,0,1,.17-.15l.08-.08c.27-.26.55-.51.81-.77h0l.26-.25.38-.38.15-.15.59-.59,0,0,.22-.23.4-.41.16-.16.15-.16.18-.17c.2-.22.39-.43.6-.64l0,0,.16-.18.57-.6.59-.66.08-.09c.09-.1.19-.2.28-.31l0,0,.52-.58.35-.4.05-.06.13-.15.1-.12.06-.07c.3-.34.59-.68.88-1l.05-.07.38-.45.2-.24c.12-.16.24-.3.36-.44l.36-.44.7-.89c.47-.6.94-1.21,1.39-1.81l.69-.92s0,0,0,0l.65-.9.09-.11.22-.33.23-.31.17-.24.66-1a1.25,1.25,0,0,1,.08-.12l.41-.61c.06-.09.11-.16.16-.25l.66-1v0c.06-.09.13-.18.18-.27l.46-.71c.12-.2.25-.4.38-.6l.3-.48a1.4,1.4,0,0,1,.1-.16l.09-.14q.18-.32.39-.63c.08-.15.18-.3.26-.45l.27-.43a1,1,0,0,1,.08-.14c.21-.34.41-.68.61-1l.12-.2.34-.61.15-.24.45-.81s0,0,0,0h0l.11-.21.31-.56c.07-.13.15-.26.21-.39.22-.4.44-.8.65-1.21.43-.79.84-1.6,1.26-2.42.06-.14.13-.27.2-.4,1.05-2.1,2.06-4.26,3-6.46q1.35-3.08,2.58-6.3C241.3,94,241.27,94.29,241.26,94.58Z"/><circle class="cls-2" cx="152.31" cy="50.26" r="6.68" transform="translate(-7.64 62.11) rotate(-22.5)"/><circle class="cls-2" cx="152.31" cy="72.35" r="6.68" transform="translate(-16.09 63.79) rotate(-22.5)"/><path class="cls-2" d="M170.39,99.22l3-.82.17-.06.34-.08.77-.22.2-.05,1.47-.39.68-.18,2-.52.93-.23c.7-.19,1.41-.36,2.12-.54l.85-.21,1-.23,1-.24,1.62-.39h0s0,0,0,0l3-.72.62-.13c.94-.23,1.89-.45,2.84-.66l.19,0V37a3.38,3.38,0,0,0-3.41-3.35H169.39V99.51l.51-.15Z"/></g></g></svg>