<svg xmlns="http://www.w3.org/2000/svg" viewBox="0 0 321.56 250"><defs><style>.cls-1{fill:none;}.cls-2{fill:#7d974e;}</style></defs><g id="Camada_2" data-name="Camada 2"><g id="Camada_2-2" data-name="Camada 2"><path class="cls-1" d="M144.57,116.9l1.5-.67.26-.12,1.38-.6c.55-.23,1.09-.47,1.65-.69l.54-.24.43-.17,1.37-.56.76-.3,1.66-.65.67-.26,2-.77.35-.14c1.4-.51,2.82-1,4.24-1.51l.86-.29,2.18-.74.32-.1c.82-.28,1.64-.55,2.46-.8s1.5-.48,2.24-.71l.24-.08,2.18-.66.17,0,2.55-.76.52-.15.49-.15,3-.85.18,0,.34-.09.79-.22.2-.06,1.49-.39c.22-.07.46-.13.7-.19l2-.53.95-.25,2.14-.55.87-.21,1-.25,1-.24,1.64-.41h0c1-.26,2.06-.51,3.09-.74l.63-.15,2.88-.68.19,0a1.14,1.14,0,0,0,.25-.06l3.31-.76V34.25a3.21,3.21,0,0,0-.87-2.2l-.19-.19a3.38,3.38,0,0,0-1.53-.78h0l-.23,0-.07,0H145.72l-.25,0-.09,0-.18,0a3.31,3.31,0,0,0-1.21.62,3.42,3.42,0,0,0-.42.43l-.17.21a4,4,0,0,0-.28.48c-.07.17-.14.35-.2.53a3.41,3.41,0,0,0-.11.85v83.46l.55-.26Zm29-82.4h20.86a3.47,3.47,0,0,1,3.5,3.44V95.82l-.2,0-2.91.67-.63.14-3.12.74h0l-1.66.41-1,.24-1,.24-.87.21-2.17.55-1,.25-2,.52-.7.19-1.51.4-.19,0-.8.22-.35.09-.17.06q-1.53.41-3.06.84l-.51.14-.52.16Zm-17.5,10.15a6.85,6.85,0,1,1-6.85,6.85A6.85,6.85,0,0,1,156.09,44.65Zm0,22.65a6.85,6.85,0,1,1-6.85,6.85A6.85,6.85,0,0,1,156.09,67.3Z"/><path class="cls-1" d="M79.76,97.53l.8,0,1,0H82l.3,0,1,0,1.68.08,1.87.13,1,.08,2,.18c3.14.31,6.52.76,10.05,1.42,1.17.22,2.36.46,3.57.73l.15,0,1.2.28.28.06,1.19.3.14,0,.09,0,.59.16.32.07.15,0,.6.16h0a.5.5,0,0,0,.13,0l.61.17.06,0,.25.07.91.27.36.1.92.28.13,0,.05,0h0l.62.2h0l.68.21,0,0,.46.15c.15,0,.3.1.46.16l.39.13.39.14,1.57.55a.11.11,0,0,0,.07,0h0l.69.27.06,0,.05,0h0l.07,0h0l.7.27.09,0s0,0,0,0l.23.08.53.22.23.09.77.31a0,0,0,0,0,0,0h0l.21.09.17.07,1.14.49.76.34.76.35.77.37.05,0,.16.08.22.11c.15.06.3.14.44.21l1,.51c.37.18.74.38,1.11.57l0,0,.21.11.28.15.2.12a.05.05,0,0,1,0,0c.24.12.47.24.7.38s.23.13.35.18l.79.46a1.19,1.19,0,0,0,.15.09l.16.09.75.44.2.12.25.16.48.28.08.06.66.41.17.11c.22.13.44.28.66.42l.43.28.68.45a1.88,1.88,0,0,0,.23.16l.19.13,0,0,.07,0a.61.61,0,0,1,.14.1l.27.19.39.26v0l.74.52s0,0,0,0l.3.21.47.36.32.23.16.12,0,0,.64.49a2.51,2.51,0,0,1,.32.25l.33.25V88.38c-.64-.56-1.28-1.1-1.93-1.62a71.66,71.66,0,0,0-6.88-5l-.12-.08-.7-.43-.22-.14c-1.54-.94-3.08-1.81-4.65-2.62A94.2,94.2,0,0,0,92.32,69.1c-3.65-.46-7-.71-10-.84-1.79-.08-3.45-.12-5-.13h0l-.18.67c-.05.23-.11.45-.17.67-.35,1.35-.66,2.7-1,4.06-.53,2.56-1,5.15-1.26,7.78-.21,1.8-.37,3.62-.46,5.45-.09,1.56-.12,3.12-.12,4.69V92.8l0,1.28v0c0,.5,0,1,.07,1.5s0,.7,0,1,0,.56,0,.84h.43C76.26,97.49,77.92,97.49,79.76,97.53Z"/><path class="cls-1" d="M83,64l1.17,0c1.19.07,2.42.16,3.7.26.33,0,.66.07,1,.09l.78.07.89.1,1.77.2.73.09c1,.12,2,.27,3.1.43,1.38.21,2.79.45,4.22.73.85.16,1.7.34,2.56.53.4.08.81.17,1.21.27l1.64.39q3.63.89,7.35,2.11l1.17.4c1.38.48,2.77,1,4.16,1.55l1.71.7.3.13c.6.26,1.22.53,1.82.81a.91.91,0,0,1,.17.09c.65.3,1.31.6,2,.92l0,0h0c.84.42,1.68.85,2.52,1.3l1.11.61c1.39.77,2.75,1.58,4.11,2.45.47.3.94.6,1.4.91,1,.67,2,1.36,3,2.09.65.49,1.31,1,2,1.5V54.73c-.55-.48-1.11-.95-1.66-1.4-.37-.32-.75-.62-1.13-.9-.56-.45-1.13-.88-1.7-1.31l-1.14-.82c-.38-.27-.76-.54-1.15-.8l-1.16-.77L129.43,48c-.54-.34-1.07-.66-1.61-1a80.05,80.05,0,0,0-11.22-5.49,89.09,89.09,0,0,0-8.79-3,101.07,101.07,0,0,0-13.33-2.81h0c-.09.11-.19.22-.28.34l-.3.34a.12.12,0,0,1,0,.07l-.51.63a1.71,1.71,0,0,0-.11.14l-.12.15-.22.28a2.11,2.11,0,0,0-.19.23c0,.07-.11.13-.16.21l-.31.39-.24.31a1.24,1.24,0,0,1-.14.18l-.13.18-.14.19c-.29.38-.58.76-.86,1.15l-.19.26c-.29.42-.59.83-.88,1.24l-.39.57-.65,1c-.14.21-.27.42-.42.63l-.18.28-.39.61c-.07.11-.13.22-.2.32s-.2.3-.29.46c-.28.44-.55.9-.82,1.36a.67.67,0,0,0-.09.14c-.15.24-.28.48-.43.73s-.19.34-.3.51-.19.34-.29.51l-.71,1.29c0,.09-.09.17-.14.26a.91.91,0,0,1-.07.14.54.54,0,0,1-.07.13l-.27.53a.83.83,0,0,0-.07.13l-.08.15,0,.08a.3.3,0,0,1,0,.08c-.09.17-.19.35-.27.52a2.39,2.39,0,0,1-.12.22c0,.07-.07.14-.1.22l-.48,1-.13.27c-.1.21-.21.42-.3.63h0s0,0,0,.06l-.46,1c-.13.28-.25.57-.38.85l-.12.27c-.12.29-.25.58-.36.86s-.21.5-.32.76c-.17.41-.34.83-.5,1.25s-.26.67-.39,1-.26.67-.38,1l-.39,1.1c-.11.31-.21.62-.32.94,1.14,0,2.36,0,3.65.11Z"/><path class="cls-1" d="M240,56.35h0c.06.12.12.25.17.37Z"/><path class="cls-1" d="M200.87,103.74l-2.14.49-.74.18-3.3.77-2.24.55-.62.14-2.24.57c-.72.17-1.44.36-2.16.54l-.38.1-.41.1-1.57.41-.58.15-.29.08-2.84.77-.27.07-.25.07q-.65.17-1.29.36c-.47.12-.93.25-1.4.39l-.45.12-.39.12c-1,.28-2,.57-3,.87h0l-.15,0-1.54.46-.62.19-1.68.53c-.36.1-.71.21-1.06.33l-1.68.53-.89.29-5.29,11.48-2,4.43-15.45,33.54a118,118,0,0,0,33.26-3.78l21.37-49.54.17-.4Z"/><path class="cls-1" d="M108.62,141.63c2-2.11,4.12-4.12,6.32-6.06a103.21,103.21,0,0,1,8.53-6.7c.52-.38,1-.74,1.59-1.1s1.39-1,2.11-1.41l.8-.52c.55-.34,1.09-.69,1.64-1,.35-.21.69-.43,1-.63,1-.63,2.11-1.24,3.19-1.85l1.53-.84c.51-.28,1-.57,1.55-.84-1-.84-2-1.64-3.09-2.41l-.11-.07a76.47,76.47,0,0,0-16.41-9.09,100.57,100.57,0,0,0-27.76-6.67l-.19,0c-1.13-.11-2.22-.2-3.29-.28L84.91,102l-2.64-.14h-.35l-1.06,0c-1.78-.06-3.41-.07-4.87-.07H74.76c0,.15,0,.3,0,.45l.06.45c0,.18,0,.36.08.54s0,.46.09.68,0,.38.08.57a.25.25,0,0,1,0,.08c0,.22.07.44.1.66a1.93,1.93,0,0,1,0,.27c.09.5.17,1,.26,1.48a1.72,1.72,0,0,1,0,.24s0,0,0,.07c0,.25.09.51.14.76s.11.59.17.88.07.32.11.48.11.56.18.83a3.58,3.58,0,0,0,.09.45c0,.18.08.37.13.56s.15.67.24,1a1.33,1.33,0,0,0,0,.19c0,.19.09.37.13.55l.15.57c0,.18.1.37.14.55a.21.21,0,0,1,0,.06q.15.54.3,1c.06.23.12.46.19.68.16.58.34,1.15.52,1.72,0,.16.11.33.16.5l.23.71c.06.16.11.33.17.49l.07.22.11.32.1.3s0,0,0,.08a1,1,0,0,0,0,.14l0,.1a.58.58,0,0,1,.05.14l.09.23s0,0,0,0,0,0,0,.05a.14.14,0,0,0,0,.06l0,.1c0,.11.08.21.12.32a.92.92,0,0,0,.09.23.93.93,0,0,1,0,.13,0,0,0,0,0,0,0,0,0,0,0,0,0,0,.41.41,0,0,0,0,.08.19.19,0,0,1,0,.07c0,.11.08.23.13.33s0,.09,0,.13l0,.1s0,.09,0,.14a2.92,2.92,0,0,1,.13.34c.07.16.13.33.2.5s.2.5.31.75a.12.12,0,0,0,0,.07l0,.07.15.34a3.07,3.07,0,0,0,.17.42c0,.07.06.14.09.22l.16.37a.06.06,0,0,0,0,0l0,.11,0,.08c.24.55.48,1.09.73,1.64a.24.24,0,0,1,0,.07s0,0,0,0l0,0,0,.07a.27.27,0,0,0,.06.12.5.5,0,0,0,0,.13s0,.05,0,.08a.52.52,0,0,0,.06.13l.06.14.1.19.1.22s0,0,0,0h0c0,.05.06.11.08.17l.08.18c.09.2.2.39.29.58l.59,1.17a.83.83,0,0,0,.07.13,2.78,2.78,0,0,0,.22.42l0,.09a.08.08,0,0,1,0,0,.64.64,0,0,0,.08.14l.09.17a1.62,1.62,0,0,0,.1.18,1,1,0,0,0,.1.18l0,.07,0,.05.07.15c.16.31.34.6.5.9a2.1,2.1,0,0,0,.14.24l.07.12a.39.39,0,0,0,.06.11l0,.1.11.19c.08.13.15.28.24.4l0,.09,0,.05a.6.6,0,0,0,.06.11s0,0,0,0,.18.3.26.45a1.1,1.1,0,0,1,.09.14l0,0,0,.05.06.09,0,.07.12.2a3.37,3.37,0,0,1,.19.32,1.22,1.22,0,0,1,.12.19l.06.1,0,.08h0s0,0,0,0l0,0s0,0,0,.05a1,1,0,0,1,.11.17l.06.08,0,0a.24.24,0,0,0,.06.09l.23.38.18.29c.11.18.23.35.34.52l.15.23a.05.05,0,0,1,0,0s.06.08.09.13l.26.39c.17.28.36.54.54.8l0,.1,0,0,.06.09c.13.18.25.38.39.56l.06.1.24.34.24.35h0s0,0,0,0l.08.1.16.24.07.08.22.31.08.1.46.62c.08.12.17.25.26.36l.36.49.47.6.09.11,1.27,1.59.2.24,0,.05.1.13c.12.15.25.3.38.44l.51.61.29.34.13.15.13.15c.22.25.43.48.64.73s.2.23.3.34l.06.07.12.12,3,3.11,0,0q2.72-3.81,5.74-7.33C106.33,144.08,107.45,142.84,108.62,141.63Z"/><path class="cls-1" d="M192.1,153.26q3.65-1.69,7.1-3.69c.47-.26.93-.53,1.39-.81l.29-.17.94-.57A88.39,88.39,0,0,0,215,138a94.43,94.43,0,0,0,10.83-11.77.71.71,0,0,1,.07-.09l.48-.62,0-.05a.76.76,0,0,1,.08-.11,1.56,1.56,0,0,0,.16-.2l.2-.28.6-.79c.11-.17.23-.32.35-.48s.21-.31.32-.45l.67-.94.28-.41a2.07,2.07,0,0,0,.17-.24c.16-.21.31-.43.45-.64,0,0,0,0,0,0q.63-.92,1.23-1.86l.28-.42c.26-.41.53-.82.78-1.24l0,0h0l.14-.22.27-.44c.13-.22.27-.44.41-.66a2.53,2.53,0,0,1,.13-.22l.14-.22.21-.35c.09-.15.18-.3.26-.45L234,114c.15-.26.3-.51.44-.77,0,0,0,0,0,0,.19-.32.37-.64.55-1l.51-.9.05-.11h0a.54.54,0,0,1,.05-.11.43.43,0,0,0,0-.07l.14-.25.3-.58a2.12,2.12,0,0,0,.12-.2,0,0,0,0,1,0,0l0,0a.37.37,0,0,0,.05-.11.26.26,0,0,0,0-.09,2.48,2.48,0,0,0,.17-.32l.11-.2s0,0,0,0l.06-.1c.11-.23.23-.45.35-.67s.08-.18.13-.27l0-.06.12-.24c.13-.25.26-.49.38-.75s.27-.53.39-.79.27-.53.39-.81a2.1,2.1,0,0,0,.15-.3l.11-.23c.17-.35.34-.72.52-1.07s.26-.6.4-.89l.1-.21.12-.28.45-1,.27-.62c.08-.17.15-.34.23-.52l.06-.14c.14-.34.28-.66.43-1,.07-.16.13-.33.2-.49s.05-.11.07-.17.05-.13.08-.19l0-.07c0-.09.07-.18.12-.27.12-.28.23-.57.34-.87h0c0-.06.05-.12.08-.19.09-.23.18-.46.27-.67s.13-.34.2-.51.11-.29.17-.43l.16-.44a3.25,3.25,0,0,0,.18-.43c.09-.26.2-.53.3-.79-3.36,1-6.91,2-10.69,3l-2.71.69h0v0h0l-.8.2-.34.09-.44.11-1.59.39-1.55.35h0c-.32.08-.64.14-1,.21l-.29.07-.14,0c-.18,0-.37.07-.55.12l-.09,0-.51.11-.38.07h0l-.14,0-.14,0h0l-.43.09-.15,0-.21,0-.66.14-.23.05-.2,0-.12,0h-.08l-.91.19-.39.08-1.21.23-1.22.24-.28.06c-.23,0-.46.09-.69.12s-.59.12-.89.18l-.26,0-1.38.27c-2.06.39-4.18.81-6.34,1.27v.06l-.7.17-2.8,6.48-20.7,48A93.71,93.71,0,0,0,192.1,153.26Z"/><path class="cls-1" d="M111.16,157.9c2.61.66,5.64,1.35,9,2,3.13.59,6.55,1.13,10.21,1.56,2.81.34,5.85.61,9.09.8l15.36-33.37,6.48-14.06c-.67.23-1.34.47-2,.72l-1.45.53-.7.26-1.13.43c-1,.4-2.05.81-3.08,1.23l-.31.12c-.95.38-1.9.78-2.84,1.19l-.2.08-.56.24-.23.1-.41.18-.19.08-.14.06-.06,0-.06,0-.35.15-.05,0-.32.15-.32.14-.23.1-.06,0-.14.06-.1.05-.16.07h0l-.14.07h0l-.71.33-.48.22-1.15.54-1.94.94v0h0c-.83.41-1.66.83-2.47,1.27s-1.62.85-2.42,1.28l-2.1,1.19c-1.22.69-2.4,1.4-3.57,2.13a98.94,98.94,0,0,0-19.49,15.73c-.86.89-1.7,1.81-2.51,2.74l-.1.11a94.63,94.63,0,0,0-6.34,8.05l.24.08.11,0,.18.06h.07l.12,0a1.52,1.52,0,0,0,.2.06h0l.48.15.11,0,.16.05s.05,0,.06,0l.12,0,0,0h.06l.23.07.64.18.1,0a1.17,1.17,0,0,0,.2.06l.32.1.58.16.37.11.07,0,.08,0,.73.2.15,0,.31.08.31.08.07,0,.06,0,.42.11.43.11.38.1.06,0,.21,0h0l.05,0,.41.1Z"/><path class="cls-1" d="M241.54,109.09l-.2.41c-.43.84-.85,1.67-1.29,2.48-.21.42-.44.83-.67,1.24-.06.14-.14.27-.21.4s-.22.38-.32.57l-.11.21h0v0c-.15.28-.31.55-.47.83l-.14.25c-.13.2-.25.41-.36.62l-.12.2-.62,1.06a1.19,1.19,0,0,0-.09.15l-.27.44c-.09.15-.19.3-.27.46l-.4.64-.1.14a1,1,0,0,1-.1.17l-.3.49-.39.62c-.16.24-.32.48-.47.72a2.75,2.75,0,0,1-.19.28v0c-.23.33-.45.67-.67,1,0,.09-.11.16-.17.25s-.28.42-.42.62l-.08.13c-.23.33-.46.65-.68,1l-.17.24c-.08.11-.15.22-.23.32l-.23.33-.09.12-.67.92s0,0,0,0l-.71.94c-.46.62-.94,1.24-1.42,1.86-.24.29-.48.61-.72.91l-.36.45-.38.45-.21.25-.38.46-.06.07c-.29.36-.59.71-.89,1.05l-.06.08-.11.12-.14.16s0,0,0,.05l-.36.41c-.18.21-.36.4-.54.6l0,0-.28.32-.08.09c-.2.23-.4.45-.61.67l-.58.62-.17.19,0,0-.62.65-.17.18-.16.16-.16.16-.41.43c-.08.07-.16.16-.23.23l0,0c-.2.21-.4.41-.61.61l-.15.15q-.2.18-.39.39c-.1.08-.18.17-.27.25h0l-.82.78-.09.09a1.22,1.22,0,0,0-.17.15l-.3.29-.06,0c-.34.33-.7.65-1,1-.5.44-1,.89-1.5,1.32-.32.28-.64.55-1,.81-.14.13-.3.26-.45.38l-.12.1-.14.12-.33.27-.57.46-.2.15-.49.4-.21.15-1,.8c-.14.1-.27.21-.41.3l-.55.42-.42.31c-.27.19-.52.38-.79.56l-.4.3-.41.28-.81.55-.42.3-.43.28-.82.54-.42.27-.59.38s0,0,0,0l-.4.26-.16.1h0a1.2,1.2,0,0,0-.17.11c-.4.23-.79.47-1.18.71l-.86.51-.12.07-.06,0c-.18.1-.35.2-.54.29h0l-.18.1-.11.07-.29.16-.24.14-.4.22c-.15.08-.3.17-.45.24l-.07,0-.4.21-.09,0-.55.3-.34.17-1.28.66-.29.14-.47.24-.11,0h0l-.25.13-.42.2-.19.09-.54.25-.46.22-.14.07a100,100,0,0,1-19,6.48A122.52,122.52,0,0,1,147,166.73c-4.09,0-8-.18-11.58-.47-1.08-.09-2.14-.19-3.17-.3l-1.71-.18-.77-.09-1-.12c-3.18-.4-6.16-.87-8.93-1.39l-1.14-.21-1-.2-2.81-.58-.45-.1-.22-.05-.22,0-.27-.06a2.61,2.61,0,0,0-.27-.06l-.53-.12-1-.23-1.08-.27c1.27.92,2.57,1.78,3.9,2.62a83.71,83.71,0,0,0,9.35,5.09c1,.48,2,.94,3.07,1.37a86.36,86.36,0,0,0,31.13,6.72c.82,0,1.66,0,2.49,0a86.73,86.73,0,0,0,82.59-60.36c.51-1.59,1-3.19,1.37-4.8q.19-.75.36-1.5c.09-.38.17-.75.26-1.12a.93.93,0,0,0,0-.22c.07-.25.12-.52.17-.78a1.6,1.6,0,0,0,.05-.21c0-.1,0-.2.06-.3a1.84,1.84,0,0,0,0-.25c0-.08,0-.17.05-.25.09-.51.19-1,.29-1.51v-.09c0-.13.05-.25.07-.39a.51.51,0,0,0,0-.17,1.7,1.7,0,0,0,0-.22h0c0-.15,0-.28.07-.42v0c0-.1,0-.21.05-.31a.36.36,0,0,1,0-.11c0-.22.07-.44.1-.67a1.46,1.46,0,0,0,0-.22c0-.15,0-.3.07-.44,0-.29.07-.58.11-.86s.08-.63.11-.94.07-.56.1-.84,0-.27.05-.41a.31.31,0,0,1,0-.09.22.22,0,0,0,0-.08c0-.17,0-.34.05-.5s0-.18,0-.27a1.64,1.64,0,0,0,0-.23.5.5,0,0,0,0-.12c0-.2,0-.41.05-.61,0,0,0-.11,0-.17,0-.24,0-.48.05-.72v-.07c0-.28,0-.57.06-.85s0-.6,0-.9q-1.26,3.28-2.64,6.45Q243.17,105.86,241.54,109.09Z"/><path class="cls-1" d="M315,232.65a2.73,2.73,0,0,1-2.59,1.41c-2.12,0-3.43-1.71-3.43-4.48s1.28-4.43,3.44-4.43a2.61,2.61,0,0,1,2.43,1.32,3.51,3.51,0,0,1,.38.94l2.31-.51a4.09,4.09,0,0,0-.82-1.74,5.11,5.11,0,0,0-4.26-2,5.32,5.32,0,0,0-4.24,1.76,7.16,7.16,0,0,0-1.56,4.69,7,7,0,0,0,1.71,4.87,5.42,5.42,0,0,0,4,1.51c2.22,0,3.81-.8,4.67-2.37a6,6,0,0,0,.63-1.7l-2.39-.42A3.3,3.3,0,0,1,315,232.65Z"/><path class="cls-1" d="M129.32,219.63a7.5,7.5,0,0,0-1.2-3.86,3.61,3.61,0,0,0-3.16-2,3.82,3.82,0,0,0-3.39,2,9.79,9.79,0,0,0-1.26,5.22,17.38,17.38,0,0,0,.54,4.69l7.05-3.54A2.62,2.62,0,0,0,129.32,219.63Z"/><path class="cls-2" d="M312.17,220.24a9.41,9.41,0,0,0,0,18.81,9.59,9.59,0,0,0,6.66-2.74,9.42,9.42,0,0,0-6.64-16.07ZM317,233.65c-.86,1.57-2.45,2.38-4.67,2.37a5.42,5.42,0,0,1-4-1.51,7,7,0,0,1-1.71-4.87,7.16,7.16,0,0,1,1.56-4.69,5.32,5.32,0,0,1,4.24-1.76,5.11,5.11,0,0,1,4.26,2,4.09,4.09,0,0,1,.82,1.74l-2.31.51a3.51,3.51,0,0,0-.38-.94,2.61,2.61,0,0,0-2.43-1.32c-2.16,0-3.44,1.65-3.44,4.43s1.31,4.48,3.43,4.48a2.73,2.73,0,0,0,2.59-1.41,3.3,3.3,0,0,0,.32-1.12l2.39.42A6,6,0,0,1,317,233.65Z"/><path class="cls-2" d="M26.53,218.64a22.37,22.37,0,0,0-4.28-1.95c-1.57-.52-3.13-1-4.7-1.42a34.71,34.71,0,0,1-4.29-1.45,7.75,7.75,0,0,1-3.16-2.41,6.24,6.24,0,0,1-1.23-3.94,5.52,5.52,0,0,1,1.59-4,6.25,6.25,0,0,1,4.59-1.58,6.49,6.49,0,0,1,3.69,1A6.78,6.78,0,0,1,21,205.3c.51.95,1,1.9,1.45,2.84a8.19,8.19,0,0,0,1.74,2.44,3.79,3.79,0,0,0,2.71,1c2.33,0,3.5-1.12,3.5-3.38,0-2.41-1.39-4.58-4.28-6.53a19,19,0,0,0-10.9-2.94q-6.66,0-10.57,3.16a10.05,10.05,0,0,0-3.92,8.19A11.6,11.6,0,0,0,2,215.63a8.71,8.71,0,0,0,3.2,3.45A21.16,21.16,0,0,0,9.46,221c1.56.52,3.13,1,4.7,1.35a29.9,29.9,0,0,1,4.28,1.37,7.7,7.7,0,0,1,3.17,2.32,6,6,0,0,1,1.22,3.88,5.06,5.06,0,0,1-1.72,4,6.74,6.74,0,0,1-4.62,1.49,8.64,8.64,0,0,1-4.37-1,7.71,7.71,0,0,1-2.73-2.49C8.77,231,8.2,230,7.68,229a10.36,10.36,0,0,0-1.86-2.52,3.75,3.75,0,0,0-2.54-1.09,3.17,3.17,0,0,0-2.46.9A3.5,3.5,0,0,0,0,228.72q0,3.66,4.45,6.75t11.71,3.1a17.77,17.77,0,0,0,10.49-3,9.43,9.43,0,0,0,4.27-8.13A11,11,0,0,0,29.7,222,8.61,8.61,0,0,0,26.53,218.64Z"/><path class="cls-2" d="M62.85,235.89a2.32,2.32,0,0,0-.91-.36c-.32-.05-.62-.33-.9-.82a4.73,4.73,0,0,1-.4-2.21l0-20c0-.8-.69-1.13-2.08-1l-7,1c-.73.11-1.09.49-1.09,1.14v.17c0,.29.36.83,1.09,1.61A3.7,3.7,0,0,1,52.68,218l0,11.09a7.49,7.49,0,0,1-1.34,4.62A4.05,4.05,0,0,1,48,235.49q-4.53,0-4.53-7.44l.18-15.57c0-.83-.74-1.16-2.24-1l-6.88,1c-.77.11-1.15.49-1.15,1.14v.17c0,.29.36.83,1.06,1.61A3.74,3.74,0,0,1,35.47,218v9.24c0,3.6.95,6.4,2.86,8.38a9.67,9.67,0,0,0,7.29,3q5.63,0,7.92-3.76a3.33,3.33,0,0,0,1.28,2.76,6.54,6.54,0,0,0,3.58.8q4.86,0,4.86-1.58A1,1,0,0,0,62.85,235.89Z"/><path class="cls-2" d="M86.1,224.82a14.88,14.88,0,0,0-2.92-1.39C82.11,223,81,222.7,80,222.38a27.12,27.12,0,0,1-2.9-1A5.16,5.16,0,0,1,75,219.78a4,4,0,0,1-.81-2.56,3.72,3.72,0,0,1,1-2.6,3.35,3.35,0,0,1,2.57-1.06,3.28,3.28,0,0,1,2.57,1.12,6.38,6.38,0,0,1,1.36,2.46,6.67,6.67,0,0,0,1.31,2.46,3,3,0,0,0,2.46,1.12,3.14,3.14,0,0,0,2.21-.81,2.63,2.63,0,0,0,.9-2c0-1.79-1-3.33-3.13-4.62a15.19,15.19,0,0,0-8.11-2,13.21,13.21,0,0,0-8,2.26,6.87,6.87,0,0,0-3.09,5.76,7.12,7.12,0,0,0,1.55,4.78,8.32,8.32,0,0,0,3.79,2.57c1.5.49,3,.93,4.48,1.32a11,11,0,0,1,3.8,1.72,3.7,3.7,0,0,1,1.55,3.12,3.28,3.28,0,0,1-1.12,2.67,4.36,4.36,0,0,1-2.87.93,4,4,0,0,1-2.92-1.12,5.87,5.87,0,0,1-1.53-2.49,6.69,6.69,0,0,0-1.39-2.49,3.24,3.24,0,0,0-2.57-1.12,3.53,3.53,0,0,0-2.37.76,2.79,2.79,0,0,0-.91,2.24q0,2.63,3.28,4.48a16.86,16.86,0,0,0,8.41,1.87q5.36,0,8.52-2.2a6.63,6.63,0,0,0,3.18-5.6,7.43,7.43,0,0,0-.82-3.63A6,6,0,0,0,86.1,224.82Z"/><path class="cls-2" d="M110.38,229.79a1.16,1.16,0,0,0-1.23.58,3.56,3.56,0,0,1-3.72,2.45,2.48,2.48,0,0,1-2-1,3.84,3.84,0,0,1-.79-2.54l0-14.26H109a1.07,1.07,0,0,0,.76-.3A1,1,0,0,0,110,214v-.93a1.1,1.1,0,0,0-.32-.82,1.06,1.06,0,0,0-.77-.33h-6.28l0-5.41c0-.87-.4-1.31-1.2-1.31h-1.09c-.66,0-1.08.44-1.26,1.31a6.87,6.87,0,0,1-2,3.93,5.33,5.33,0,0,1-3.8,1.47H91.91c-.73,0-1.1.38-1.1,1.15V214a1,1,0,0,0,1.09,1.09h2.57V229.2c0,3.06.73,5.4,2.2,7a7.73,7.73,0,0,0,6,2.44,8,8,0,0,0,6.14-2.39,7.91,7.91,0,0,0,2.28-5.57A.83.83,0,0,0,110.38,229.79Z"/><path class="cls-2" d="M136.36,229.41a1,1,0,0,0-1.2.44,6.32,6.32,0,0,1-2.49,2.26,7.76,7.76,0,0,1-3.75.9,7.49,7.49,0,0,1-7.2-4.76l12.13-5.51a3.71,3.71,0,0,0,2.41-3.6,7.05,7.05,0,0,0-2.67-5.41c-1.78-1.57-4.33-2.35-7.65-2.36a13.12,13.12,0,0,0-13.23,13.43,13.79,13.79,0,0,0,3.7,10,12.67,12.67,0,0,0,9.5,3.84,11.27,11.27,0,0,0,7.82-2.7c2-1.8,3.1-3.65,3.28-5.54A.9.9,0,0,0,136.36,229.41ZM120.31,221a9.79,9.79,0,0,1,1.26-5.22,3.82,3.82,0,0,1,3.39-2,3.61,3.61,0,0,1,3.16,2,7.5,7.5,0,0,1,1.2,3.86,2.62,2.62,0,0,1-1.42,2.56l-7.05,3.54A17.38,17.38,0,0,1,120.31,221Z"/><path class="cls-2" d="M185.14,232.91l-.65-9.73q-.42-6.23-3.21-9a9.49,9.49,0,0,0-6.93-2.77,9.64,9.64,0,0,0-5,1.31,8.17,8.17,0,0,0-3.31,3.6q-2.83-4.92-9.07-4.92a8.41,8.41,0,0,0-7.54,3.92v-2.57a1.42,1.42,0,0,0-.49-1.23,1.4,1.4,0,0,0-1.42.08l-6.89,3.16c-.76.37-1.14.75-1.14,1.15v.22a1.41,1.41,0,0,0,.68,1.07,9.41,9.41,0,0,1,1.33,1.23,2.46,2.46,0,0,1,.66,1.75l0,12.72a3.4,3.4,0,0,1-1.17,2.46c-.79.77-1.18,1.33-1.18,1.69v.22q0,.93,1.26.93h10.16c.84,0,1.25-.3,1.26-.92v-.22c0-.37-.4-.93-1.18-1.7a3.4,3.4,0,0,1-1.17-2.46V220.58a7.19,7.19,0,0,1,1.27-4.37,4,4,0,0,1,3.44-1.69,3.94,3.94,0,0,1,3.44,2,10.5,10.5,0,0,1,1.3,5.74v10.65a3.72,3.72,0,0,1-1,2.46,3.32,3.32,0,0,0-1,1.69v.22q0,.93,1.26.93h9.45q1.2,0,1.2-.93v-.21a3.41,3.41,0,0,0-.95-1.7,3.75,3.75,0,0,1-1-2.46v-10.1a13.39,13.39,0,0,0-.21-2.63,7.09,7.09,0,0,1,1.31-4.09,3.89,3.89,0,0,1,6.5.36q1.15,1.94,1.36,6.47l.54,10a3.21,3.21,0,0,1-.91,2.46,3.33,3.33,0,0,0-1,1.69v.22q0,.93,1.26.93h9.45q1.2,0,1.2-.93v-.21a3.39,3.39,0,0,0-.92-1.75A4.46,4.46,0,0,1,185.14,232.91Z"/><path class="cls-2" d="M233.66,223.92a1.43,1.43,0,0,0-1.69.62q-3.89,6.89-10.34,6.88-5.19,0-9.09-5.09t-3.89-12.9a12.62,12.62,0,0,1,2.47-8.06,7.36,7.36,0,0,1,5.9-3.08,6.63,6.63,0,0,1,3.77,1.1,9.14,9.14,0,0,1,2.65,2.68c.67,1.06,1.31,2.1,1.93,3.14a10.85,10.85,0,0,0,2.19,2.66,4.25,4.25,0,0,0,2.89,1.09,3.87,3.87,0,0,0,2.84-1,3.52,3.52,0,0,0,1-2.64c0-2.63-1.54-5-4.63-7.14A18.9,18.9,0,0,0,218.77,199a17,17,0,0,0-13.09,5.45q-5.06,5.46-5.06,13.93a20.78,20.78,0,0,0,5.47,14.23,17,17,0,0,0,13.08,6.22c4.62,0,8.27-1.28,10.93-3.87a14.61,14.61,0,0,0,4.49-9.5A1.26,1.26,0,0,0,233.66,223.92Z"/><path class="cls-2" d="M240,206.83a5.65,5.65,0,0,0,3.9,1.34,5.43,5.43,0,0,0,3.86-1.34,4.51,4.51,0,0,0,1.45-3.46,4.43,4.43,0,0,0-1.45-3.42,5.44,5.44,0,0,0-3.85-1.34,5.64,5.64,0,0,0-3.9,1.33,4.34,4.34,0,0,0-1.51,3.41A4.45,4.45,0,0,0,240,206.83Z"/><path class="cls-2" d="M247.91,233l0-20.16a1.27,1.27,0,0,0-.6-1.18,1.81,1.81,0,0,0-1.64.08l-6.83,3.38c-.76.4-1.15.78-1.15,1.15v.16c0,.29.35.84,1,1.64a3.87,3.87,0,0,1,1,2.57V233a3.6,3.6,0,0,1-1,2.45c-.69.77-1,1.33-1,1.7v.21q0,.93,1.2.93l10.05,0q1.26,0,1.26-.93v-.22c0-.36-.38-.93-1.15-1.7A3.44,3.44,0,0,1,247.91,233Z"/><path class="cls-2" d="M271.7,230a1.15,1.15,0,0,0-1.22.57,3.57,3.57,0,0,1-3.72,2.46,2.49,2.49,0,0,1-2-1,3.86,3.86,0,0,1-.78-2.54V215.24h6.28a1.07,1.07,0,0,0,.77-.3,1,1,0,0,0,.33-.79v-.93a1.12,1.12,0,0,0-.33-.82,1.07,1.07,0,0,0-.76-.32H264l0-5.41c0-.87-.4-1.31-1.2-1.31h-1.1c-.65,0-1.07.43-1.26,1.31a6.86,6.86,0,0,1-2,3.93,5.34,5.34,0,0,1-3.8,1.47h-1.37c-.73,0-1.09.38-1.09,1.14v.93a1,1,0,0,0,1.09,1.1h2.57l0,14.15c0,3.06.73,5.4,2.21,7a7.74,7.74,0,0,0,6,2.44,8.07,8.07,0,0,0,6.15-2.4,7.88,7.88,0,0,0,2.27-5.57A.82.82,0,0,0,271.7,230Z"/><path class="cls-2" d="M301.58,212.11h-6.66c-.77,0-1.15.31-1.15.93v.22c0,.33.31.72.92,1.17a7.73,7.73,0,0,1,1.48,1.4c.36.47.36,1.33,0,2.57l-5.92,14-6.38-14.81a4.31,4.31,0,0,1-.32-2.08,3.71,3.71,0,0,1,.66-1.17,2,2,0,0,0,.49-1.12V213c0-.62-.35-.93-1-.93H273.45c-.77,0-1.15.29-1.15.87v.28a3.21,3.21,0,0,0,1.17,1.88,9.46,9.46,0,0,1,1.77,2.38l10.85,22.3q-3.12,7.65-5.64,7.64a1.68,1.68,0,0,1-1.5-1,8,8,0,0,1-.84-2.27,5.11,5.11,0,0,0-1.15-2.27,3,3,0,0,0-2.4-1,3.18,3.18,0,0,0-2.4.9,3.24,3.24,0,0,0-.88,2.38,5.14,5.14,0,0,0,2.26,4A9,9,0,0,0,279.3,250a6.86,6.86,0,0,0,3.06-.71,9.56,9.56,0,0,0,2.46-1.63,12.84,12.84,0,0,0,2-2.54c.68-1.08,1.18-1.94,1.51-2.59s.73-1.52,1.2-2.57l10.35-22.44a9.49,9.49,0,0,1,1.67-2.35,3.33,3.33,0,0,0,1.12-1.91V213C302.67,212.4,302.31,212.11,301.58,212.11Z"/><path class="cls-2" d="M224,98.88l-.64.14.09,0C223.67,99,223.86,98.92,224,98.88Z"/><path class="cls-2" d="M222.51,99.2a.35.35,0,0,1-.14,0l.14,0Z"/><path class="cls-2" d="M252.12,86.76a91.47,91.47,0,0,0-156-60,91.77,91.77,0,0,0-13.84,17.7,89.75,89.75,0,0,0-8.42,18.44,91.65,91.65,0,0,0-4.41,23.84c-.07,1.56-.11,3.12-.11,4.69a91.47,91.47,0,0,0,181.21,17.64,92.29,92.29,0,0,0,1.69-17.64C252.23,89.88,252.2,88.32,252.12,86.76ZM240,56.35l.16.36c-.05-.12-.11-.25-.17-.37Zm-34.16,46.26.7-.17v-.06c2.16-.46,4.28-.88,6.34-1.27l1.38-.27.26,0c.3-.06.6-.11.89-.18s.46-.08.69-.12l.28-.06,1.22-.24,1.21-.23.39-.08.91-.19h.08l.12,0,.2,0,.23-.05.66-.14.21,0,.15,0,.43-.09h0l.14,0a.35.35,0,0,0,.14,0l.38-.07.51-.11.64-.14.14,0,.29-.07c.32-.07.64-.13,1-.21h0l1.55-.35,1.59-.39.44-.11.34-.09.8-.2h0v0h0l2.71-.69c3.78-1,7.33-2,10.69-3-.1.26-.21.53-.3.79a3.25,3.25,0,0,1-.18.43l-.16.44c-.06.14-.11.29-.17.43s-.14.33-.2.51-.18.44-.27.67c0,.07-.06.13-.08.19h0c-.11.3-.22.59-.34.87-.05.09-.08.18-.12.27l0,.07c0,.06-.05.12-.08.19s0,.12-.07.17-.13.33-.2.49c-.15.34-.29.66-.43,1l-.06.14c-.08.18-.15.35-.23.52l-.27.62-.45,1-.12.28-.1.21c-.14.29-.27.59-.4.89s-.35.72-.52,1.07l-.11.23a2.1,2.1,0,0,1-.15.3q-.18.42-.39.81c-.12.26-.25.53-.39.79s-.25.5-.38.75l-.12.24,0,.06c-.05.09-.08.18-.13.27s-.24.44-.35.67l-.06.1s0,0,0,0l-.11.2a2.48,2.48,0,0,1-.17.32.26.26,0,0,1,0,.09.37.37,0,0,1-.05.11l0,0a0,0,0,0,0,0,0,2.12,2.12,0,0,1-.12.2l-.3.58-.14.25a.43.43,0,0,1,0,.07.54.54,0,0,0-.05.11h0l-.05.11-.51.9c-.18.33-.36.65-.55,1,0,0,0,0,0,0-.14.26-.29.51-.44.77l-.45.76c-.08.15-.17.3-.26.45l-.21.35-.14.22a2.53,2.53,0,0,0-.13.22c-.14.22-.28.44-.41.66l-.27.44-.14.22h0l0,0c-.25.42-.52.83-.78,1.24l-.28.42q-.6.94-1.23,1.86s0,0,0,0c-.14.21-.29.43-.45.64a2.07,2.07,0,0,1-.17.24l-.28.41-.67.94c-.11.14-.21.3-.32.45s-.24.31-.35.48l-.6.79-.2.28a1.56,1.56,0,0,1-.16.2.76.76,0,0,0-.08.11l0,.05-.48.62a.71.71,0,0,0-.07.09A94.43,94.43,0,0,1,215,138a88.39,88.39,0,0,1-13.13,10l-.94.57-.29.17c-.46.28-.92.55-1.39.81q-3.45,2-7.1,3.69a93.71,93.71,0,0,1-9.73,3.82l20.7-48Zm-28.68,56a118,118,0,0,1-33.26,3.78l15.45-33.54,2-4.43L166.7,113l.89-.29,1.68-.53c.35-.12.7-.23,1.06-.33l1.68-.53.62-.19,1.54-.46.15,0h0c1-.3,2-.59,3-.87l.39-.12.45-.12c.47-.14.93-.27,1.4-.39s.86-.25,1.29-.36l.25-.07.27-.07,2.84-.77.29-.08.58-.15,1.57-.41.41-.1.38-.1c.72-.18,1.44-.37,2.16-.54l2.24-.57.62-.14,2.24-.55,3.3-.77.74-.18,2.14-.49-2.14,5-.17.4ZM142.81,34.25a3.41,3.41,0,0,1,.11-.85c.06-.18.13-.36.2-.53a4,4,0,0,1,.28-.48l.17-.21a3.42,3.42,0,0,1,.42-.43,3.31,3.31,0,0,1,1.21-.62l.18,0,.09,0,.25,0h53.65l.07,0,.23,0h0a3.38,3.38,0,0,1,1.53.78l.19.19a3.21,3.21,0,0,1,.87,2.2V99l-3.31.76a1.14,1.14,0,0,1-.25.06l-.19,0-2.88.68-.63.15c-1,.23-2.05.48-3.09.74h0l-1.64.41-1,.24-1,.25-.87.21-2.14.55-.95.25-2,.53c-.24.06-.48.12-.7.19l-1.49.39-.2.06-.79.22-.34.09-.18,0-3,.85-.49.15-.52.15-2.55.76-.17,0-2.18.66-.24.08c-.74.23-1.49.46-2.24.71s-1.64.52-2.46.8l-.32.1-2.18.74-.86.29c-1.42.5-2.84,1-4.24,1.51l-.35.14-2,.77-.67.26-1.66.65-.76.3-1.37.56-.43.17-.54.24c-.56.22-1.1.46-1.65.69l-1.38.6-.26.12-1.5.67-1.21.55-.55.26ZM78.94,62.92l.39-1.1c.12-.35.25-.69.38-1s.25-.67.39-1,.33-.84.5-1.25c.11-.26.21-.51.32-.76s.24-.57.36-.86l.12-.27c.13-.28.25-.57.38-.85l.46-1s0,0,0-.06h0c.09-.21.2-.42.3-.63l.13-.27.48-1c0-.08.07-.15.1-.22a2.39,2.39,0,0,0,.12-.22c.08-.17.18-.35.27-.52a.3.3,0,0,0,0-.08l0-.08.08-.15a.83.83,0,0,1,.07-.13l.27-.53a.54.54,0,0,0,.07-.13.91.91,0,0,0,.07-.14c0-.09.1-.17.14-.26l.71-1.29c.1-.17.2-.34.29-.51s.2-.34.3-.51.28-.49.43-.73a.67.67,0,0,1,.09-.14c.27-.46.54-.92.82-1.36.09-.16.2-.31.29-.46s.13-.21.2-.32l.39-.61.18-.28c.15-.21.28-.42.42-.63l.65-1,.39-.57c.29-.41.59-.82.88-1.24l.19-.26c.28-.39.57-.77.86-1.15l.14-.19.13-.18a1.24,1.24,0,0,0,.14-.18l.24-.31.31-.39c0-.08.11-.14.16-.21a2.11,2.11,0,0,1,.19-.23l.22-.28.12-.15a1.71,1.71,0,0,1,.11-.14l.51-.63a.12.12,0,0,0,0-.07l.3-.34c.09-.12.19-.23.28-.34h0a101.07,101.07,0,0,1,13.33,2.81,89.09,89.09,0,0,1,8.79,3A80.05,80.05,0,0,1,127.82,47c.54.32,1.07.64,1.61,1l1.16.75,1.16.77c.39.26.77.53,1.15.8l1.14.82c.57.43,1.14.86,1.7,1.31.38.28.76.58,1.13.9.55.45,1.11.92,1.66,1.4V82.8c-.65-.52-1.31-1-2-1.5-1-.73-2-1.42-3-2.09-.46-.31-.93-.61-1.4-.91-1.36-.87-2.72-1.68-4.11-2.45L127,75.24c-.84-.45-1.68-.88-2.52-1.3h0l0,0c-.65-.32-1.31-.62-2-.92a.91.91,0,0,0-.17-.09c-.6-.28-1.22-.55-1.82-.81l-.3-.13-1.71-.7c-1.39-.55-2.78-1.07-4.16-1.55l-1.17-.4q-3.72-1.23-7.35-2.11l-1.64-.39c-.4-.1-.81-.19-1.21-.27-.86-.19-1.71-.37-2.56-.53-1.43-.28-2.84-.52-4.22-.73-1.06-.16-2.09-.31-3.1-.43l-.73-.09-1.77-.2-.89-.1-.78-.07c-.34,0-.67-.05-1-.09-1.28-.1-2.51-.19-3.7-.26L83,64l-.74,0c-1.29-.06-2.51-.09-3.65-.11C78.73,63.54,78.83,63.23,78.94,62.92ZM74.31,96.66c0-.35,0-.7,0-1s-.05-1-.07-1.5v0l0-1.28V91.45c0-1.57,0-3.13.12-4.69.09-1.83.25-3.65.46-5.45.3-2.63.73-5.22,1.26-7.78.29-1.36.6-2.71,1-4.06.06-.22.12-.44.17-.67l.18-.67h0c1.51,0,3.17.05,5,.13,3,.13,6.4.38,10,.84A94.2,94.2,0,0,1,124,78.54c1.57.81,3.11,1.68,4.65,2.62l.22.14.7.43.12.08a71.66,71.66,0,0,1,6.88,5c.65.52,1.29,1.06,1.93,1.62v28.07l-.33-.25a2.51,2.51,0,0,0-.32-.25l-.64-.49,0,0-.16-.12-.32-.23-.47-.36-.3-.21s0,0,0,0l-.74-.52v0l-.39-.26-.27-.19a.61.61,0,0,0-.14-.1l-.07,0,0,0-.19-.13a1.88,1.88,0,0,1-.23-.16l-.68-.45-.43-.28c-.22-.14-.44-.29-.66-.42l-.17-.11-.66-.41-.08-.06-.48-.28-.25-.16-.2-.12-.75-.44-.16-.09a1.19,1.19,0,0,1-.15-.09l-.79-.46c-.12-.05-.23-.12-.35-.18s-.46-.26-.7-.38a.05.05,0,0,0,0,0l-.2-.12-.28-.15-.21-.11,0,0c-.37-.19-.74-.39-1.11-.57l-1-.51c-.14-.07-.29-.15-.44-.21l-.22-.11-.16-.08-.05,0-.77-.37-.76-.35-.76-.34-1.14-.49-.17-.07-.21-.09h0a0,0,0,0,1,0,0l-.77-.31-.23-.09-.53-.22-.23-.08s0,0,0,0l-.09,0-.7-.27h0l-.07,0h0l-.05,0-.06,0-.69-.27h0a.11.11,0,0,1-.07,0l-1.57-.55-.39-.14-.39-.13c-.16-.06-.31-.12-.46-.16l-.46-.15,0,0-.68-.21h0l-.62-.2h0l-.05,0-.13,0-.92-.28-.36-.1-.91-.27-.25-.07-.06,0-.61-.17a.5.5,0,0,1-.13,0h0l-.6-.16-.15,0-.32-.07-.59-.16-.09,0-.14,0-1.19-.3-.28-.06-1.2-.28-.15,0c-1.21-.27-2.4-.51-3.57-.73-3.53-.66-6.91-1.11-10.05-1.42l-2-.18-1-.08-1.87-.13-1.68-.08-1,0-.3,0H81.6l-1,0-.8,0c-1.84,0-3.5,0-5,0h-.43C74.34,97.22,74.33,96.93,74.31,96.66Zm25.16,56-3-3.11-.12-.12-.06-.07c-.1-.11-.19-.23-.3-.34s-.42-.48-.64-.73l-.13-.15-.13-.15-.29-.34-.51-.61c-.13-.14-.26-.29-.38-.44l-.1-.13,0-.05-.2-.24-1.27-1.59-.09-.11-.47-.6-.36-.49c-.09-.11-.18-.24-.26-.36l-.46-.62-.08-.1L90.4,142l-.07-.08-.16-.24-.08-.1s0,0,0,0h0l-.24-.35-.24-.34-.06-.1c-.14-.18-.26-.38-.39-.56l-.06-.09,0,0,0-.1c-.18-.26-.37-.52-.54-.8l-.26-.39c0-.05-.07-.09-.09-.13a.05.05,0,0,0,0,0l-.15-.23c-.11-.17-.23-.34-.34-.52l-.18-.29-.23-.38a.24.24,0,0,1-.06-.09l0,0-.06-.08a1,1,0,0,0-.11-.17s0,0,0-.05l0,0s0,0,0,0h0l0-.08-.06-.1a1.22,1.22,0,0,0-.12-.19,3.37,3.37,0,0,0-.19-.32l-.12-.2,0-.07-.06-.09,0-.05,0,0a1.1,1.1,0,0,0-.09-.14c-.08-.15-.17-.3-.26-.45s0,0,0,0a.6.6,0,0,1-.06-.11l0-.05,0-.09c-.09-.12-.16-.27-.24-.4l-.11-.19,0-.1a.39.39,0,0,1-.06-.11l-.07-.12a2.1,2.1,0,0,1-.14-.24c-.16-.3-.34-.59-.5-.9l-.07-.15,0-.05,0-.07a1,1,0,0,1-.1-.18,1.62,1.62,0,0,1-.1-.18l-.09-.17a.64.64,0,0,1-.08-.14.08.08,0,0,0,0,0l0-.09a2.78,2.78,0,0,1-.22-.42.83.83,0,0,1-.07-.13l-.59-1.17c-.09-.19-.2-.38-.29-.58l-.08-.18c0-.06-.06-.12-.08-.17h0s0,0,0,0l-.1-.22-.1-.19-.06-.14a.52.52,0,0,1-.06-.13s0-.05,0-.08a.5.5,0,0,1,0-.13.27.27,0,0,1-.06-.12l0-.07,0,0s0,0,0,0a.24.24,0,0,0,0-.07c-.25-.55-.49-1.09-.73-1.64l0-.08,0-.11a.06.06,0,0,1,0,0l-.16-.37c0-.08-.07-.15-.09-.22a3.07,3.07,0,0,1-.17-.42l-.15-.34,0-.07a.12.12,0,0,1,0-.07c-.11-.25-.21-.51-.31-.75s-.13-.34-.2-.5a2.92,2.92,0,0,0-.13-.34s0-.1,0-.14l0-.1s0-.08,0-.13-.08-.22-.13-.33a.19.19,0,0,0,0-.07.41.41,0,0,1,0-.08,0,0,0,0,1,0,0,0,0,0,0,1,0,0,.93.93,0,0,0,0-.13.92.92,0,0,1-.09-.23c0-.11-.07-.21-.12-.32l0-.1a.14.14,0,0,1,0-.06s0,0,0-.05,0,0,0,0l-.09-.23a.58.58,0,0,0-.05-.14l0-.1a1,1,0,0,1,0-.14s0,0,0-.08l-.1-.3-.11-.32-.07-.22c-.06-.16-.11-.33-.17-.49l-.23-.71c0-.17-.11-.34-.16-.5-.18-.57-.36-1.14-.52-1.72-.07-.22-.13-.45-.19-.68s-.2-.69-.3-1a.21.21,0,0,0,0-.06c0-.18-.09-.37-.14-.55l-.15-.57c0-.18-.1-.36-.13-.55a1.33,1.33,0,0,1,0-.19c-.09-.33-.16-.67-.24-1s-.09-.38-.13-.56a3.58,3.58,0,0,1-.09-.45c-.07-.27-.13-.55-.18-.83s-.07-.32-.11-.48-.11-.58-.17-.88-.1-.51-.14-.76c0,0,0,0,0-.07a1.72,1.72,0,0,0,0-.24c-.09-.49-.17-1-.26-1.48a1.93,1.93,0,0,0,0-.27c0-.22-.07-.44-.1-.66a.25.25,0,0,0,0-.08c0-.19-.05-.38-.08-.57s-.06-.45-.09-.68,0-.36-.08-.54l-.06-.45c0-.15,0-.3,0-.45H76c1.46,0,3.09,0,4.87.07l1.06,0h.35l2.64.14,1.16.08c1.07.08,2.16.17,3.29.28l.19,0a100.57,100.57,0,0,1,27.76,6.67,76.47,76.47,0,0,1,16.41,9.09l.11.07c1,.77,2.07,1.57,3.09,2.41-.52.27-1,.56-1.55.84l-1.53.84c-1.08.61-2.14,1.22-3.19,1.85-.35.2-.69.42-1,.63-.55.33-1.09.68-1.64,1l-.8.52c-.72.46-1.42.93-2.11,1.41s-1.07.72-1.59,1.1a103.21,103.21,0,0,0-8.53,6.7c-2.2,1.94-4.31,4-6.32,6.06-1.17,1.21-2.29,2.45-3.39,3.72q-3,3.53-5.74,7.33Zm11,5.08h0l-.21,0-.06,0-.38-.1-.43-.11-.42-.11-.06,0-.07,0-.31-.08-.31-.08-.15,0-.73-.2-.08,0-.07,0-.37-.11-.58-.16-.32-.1a1.17,1.17,0,0,1-.2-.06l-.1,0-.64-.18-.23-.07h-.06l0,0-.12,0s0,0-.06,0l-.16-.05-.11,0-.48-.15h0a1.52,1.52,0,0,1-.2-.06l-.12,0h-.07l-.18-.06-.11,0-.24-.08a94.63,94.63,0,0,1,6.34-8.05l.1-.11c.81-.93,1.65-1.85,2.51-2.74a98.94,98.94,0,0,1,19.49-15.73c1.17-.73,2.35-1.44,3.57-2.13l2.1-1.19c.8-.43,1.6-.87,2.42-1.28s1.64-.86,2.47-1.27h0v0l1.94-.94,1.15-.54.48-.22.71-.33h0l.14-.07h0l.16-.07.1-.05.14-.06.06,0,.23-.1.32-.14.32-.15.05,0,.35-.15.06,0,.06,0,.14-.06.19-.08.41-.18.23-.1.56-.24.2-.08c.94-.41,1.89-.81,2.84-1.19l.31-.12c1-.42,2.05-.83,3.08-1.23l1.13-.43.7-.26,1.45-.53c.66-.25,1.33-.49,2-.72l-6.48,14.06-15.36,33.37c-3.24-.19-6.28-.46-9.09-.8-3.66-.43-7.08-1-10.21-1.56-3.36-.63-6.39-1.32-9-2l-.21-.05-.41-.1ZM247.24,96.92c0,.28,0,.57-.06.85v.07c0,.24,0,.48-.05.72,0,.06,0,.12,0,.17,0,.2,0,.41-.05.61a.5.5,0,0,1,0,.12,1.64,1.64,0,0,1,0,.23c0,.09,0,.18,0,.27s0,.33-.05.5a.22.22,0,0,1,0,.08.31.31,0,0,0,0,.09c0,.14,0,.28-.05.41s-.06.56-.1.84-.07.63-.11.94-.08.57-.11.86c0,.14-.05.29-.07.44a1.46,1.46,0,0,1,0,.22c0,.23-.07.45-.1.67a.36.36,0,0,0,0,.11c0,.1,0,.21-.05.31v0c0,.14,0,.27-.07.42h0a1.7,1.7,0,0,1,0,.22.51.51,0,0,1,0,.17c0,.14,0,.26-.07.39v.09c-.1.51-.2,1-.29,1.51,0,.08,0,.17-.05.25a1.84,1.84,0,0,1,0,.25c0,.1,0,.2-.06.3a1.6,1.6,0,0,1-.05.21c0,.26-.1.53-.17.78a.93.93,0,0,1,0,.22c-.09.37-.17.74-.26,1.12s-.23,1-.36,1.5c-.41,1.61-.86,3.21-1.37,4.8a86.73,86.73,0,0,1-82.59,60.36c-.83,0-1.67,0-2.49,0a86.36,86.36,0,0,1-31.13-6.72c-1-.43-2.06-.89-3.07-1.37a83.71,83.71,0,0,1-9.35-5.09c-1.33-.84-2.63-1.7-3.9-2.62l1.08.27,1,.23.53.12a2.61,2.61,0,0,1,.27.06l.27.06.22,0,.22.05.45.1,2.81.58,1,.2,1.14.21c2.77.52,5.75,1,8.93,1.39l1,.12.77.09,1.71.18c1,.11,2.09.21,3.17.3,3.61.29,7.49.47,11.58.47a122.52,122.52,0,0,0,27.88-3.09,100,100,0,0,0,19-6.48l.14-.07.46-.22.54-.25.19-.09.42-.2.25-.13h0l.11,0,.47-.24.29-.14,1.28-.66.34-.17.55-.3.09,0,.4-.21.07,0c.15-.07.3-.16.45-.24l.4-.22.24-.14.29-.16.11-.07.18-.1h0c.19-.09.36-.19.54-.29l.06,0,.12-.07.86-.51c.39-.24.78-.48,1.18-.71a1.2,1.2,0,0,1,.17-.11h0l.16-.1.4-.26s0,0,0,0l.59-.38.42-.27.82-.54.43-.28.42-.3.81-.55.41-.28.4-.3c.27-.18.52-.37.79-.56l.42-.31.55-.42c.14-.09.27-.2.41-.3l1-.8.21-.15.49-.4.2-.15.57-.46.33-.27.14-.12.12-.1c.15-.12.31-.25.45-.38.33-.26.65-.53,1-.81.51-.43,1-.88,1.5-1.32.35-.32.71-.64,1-1l.06,0,.3-.29a1.22,1.22,0,0,1,.17-.15l.09-.09.82-.78h0c.09-.08.17-.17.27-.25s.26-.27.39-.39l.15-.15c.21-.2.41-.4.61-.61l0,0c.07-.07.15-.16.23-.23l.41-.43.16-.16.16-.16.17-.18.62-.65,0,0,.17-.19.58-.62c.21-.22.41-.44.61-.67l.08-.09.28-.32,0,0c.18-.2.36-.39.54-.6l.36-.41s0,0,0-.05l.14-.16.11-.12.06-.08c.3-.34.6-.69.89-1.05l.06-.07.38-.46.21-.25.38-.45.36-.45c.24-.3.48-.62.72-.91.48-.62,1-1.24,1.42-1.86l.71-.94s0,0,0,0l.67-.92.09-.12.23-.33c.08-.1.15-.21.23-.32l.17-.24c.22-.33.45-.65.68-1l.08-.13c.14-.2.29-.41.42-.62s.12-.16.17-.25c.22-.33.44-.67.67-1v0a2.75,2.75,0,0,0,.19-.28c.15-.24.31-.48.47-.72l.39-.62.3-.49a1,1,0,0,0,.1-.17l.1-.14.4-.64c.08-.16.18-.31.27-.46l.27-.44a1.19,1.19,0,0,1,.09-.15l.62-1.06.12-.2c.11-.21.23-.42.36-.62l.14-.25c.16-.28.32-.55.47-.83v0h0l.11-.21c.1-.19.21-.38.32-.57s.15-.26.21-.4c.23-.41.46-.82.67-1.24.44-.81.86-1.64,1.29-2.48l.2-.41q1.62-3.23,3.11-6.62Q246,99.31,247.29,96C247.28,96.32,247.25,96.62,247.24,96.92Z"/><circle class="cls-2" cx="156.09" cy="51.5" r="6.85"/><circle class="cls-2" cx="156.09" cy="74.15" r="6.85"/><path class="cls-2" d="M174.62,101.68q1.53-.44,3.06-.84l.17-.06.35-.09.8-.22.19,0,1.51-.4.7-.19,2-.52,1-.25,2.17-.55.87-.21,1-.24,1-.24,1.66-.41h0l3.12-.74.63-.14,2.91-.67.2,0V37.94a3.47,3.47,0,0,0-3.5-3.44H173.59V102l.52-.16Z"/></g></g></svg>